<?xml version="1.0" encoding="utf-8"?>
<svg xmlns="http://www.w3.org/2000/svg" xmlns:xlink="http://www.w3.org/1999/xlink" width="600" height="400" viewBox="0 0 2400 1600">
<defs>
  <clipPath id="clip130">
    <rect x="0" y="0" width="2400" height="1600"/>
  </clipPath>
</defs>
<path clip-path="url(#clip130)" d="M0 1600 L2400 1600 L2400 0 L0 0  Z" fill="#ffffff" fill-rule="evenodd" fill-opacity="1"/>
<defs>
  <clipPath id="clip131">
    <rect x="480" y="0" width="1681" height="1600"/>
  </clipPath>
</defs>
<path clip-path="url(#clip130)" d="M224.098 1486.45 L2352.76 1486.45 L2352.76 47.2441 L224.098 47.2441  Z" fill="#ffffff" fill-rule="evenodd" fill-opacity="1"/>
<defs>
  <clipPath id="clip132">
    <rect x="224" y="47" width="2130" height="1440"/>
  </clipPath>
</defs>
<polyline clip-path="url(#clip132)" style="stroke:#000000; stroke-linecap:round; stroke-linejoin:round; stroke-width:2; stroke-opacity:0.1; fill:none" points="542.992,1486.45 542.992,47.2441 "/>
<polyline clip-path="url(#clip132)" style="stroke:#000000; stroke-linecap:round; stroke-linejoin:round; stroke-width:2; stroke-opacity:0.1; fill:none" points="1039.27,1486.45 1039.27,47.2441 "/>
<polyline clip-path="url(#clip132)" style="stroke:#000000; stroke-linecap:round; stroke-linejoin:round; stroke-width:2; stroke-opacity:0.1; fill:none" points="1535.55,1486.45 1535.55,47.2441 "/>
<polyline clip-path="url(#clip132)" style="stroke:#000000; stroke-linecap:round; stroke-linejoin:round; stroke-width:2; stroke-opacity:0.1; fill:none" points="2031.82,1486.45 2031.82,47.2441 "/>
<polyline clip-path="url(#clip132)" style="stroke:#000000; stroke-linecap:round; stroke-linejoin:round; stroke-width:2; stroke-opacity:0.1; fill:none" points="224.098,1337.56 2352.76,1337.56 "/>
<polyline clip-path="url(#clip132)" style="stroke:#000000; stroke-linecap:round; stroke-linejoin:round; stroke-width:2; stroke-opacity:0.1; fill:none" points="224.098,1089.43 2352.76,1089.43 "/>
<polyline clip-path="url(#clip132)" style="stroke:#000000; stroke-linecap:round; stroke-linejoin:round; stroke-width:2; stroke-opacity:0.1; fill:none" points="224.098,841.288 2352.76,841.288 "/>
<polyline clip-path="url(#clip132)" style="stroke:#000000; stroke-linecap:round; stroke-linejoin:round; stroke-width:2; stroke-opacity:0.1; fill:none" points="224.098,593.149 2352.76,593.149 "/>
<polyline clip-path="url(#clip132)" style="stroke:#000000; stroke-linecap:round; stroke-linejoin:round; stroke-width:2; stroke-opacity:0.1; fill:none" points="224.098,345.01 2352.76,345.01 "/>
<polyline clip-path="url(#clip132)" style="stroke:#000000; stroke-linecap:round; stroke-linejoin:round; stroke-width:2; stroke-opacity:0.1; fill:none" points="224.098,96.8718 2352.76,96.8718 "/>
<polyline clip-path="url(#clip132)" style="stroke:#808080; stroke-linecap:round; stroke-linejoin:round; stroke-width:4; stroke-opacity:1; fill:none" stroke-dasharray="16, 10" points="542.992,642.777 556.217,632.368 569.605,622.17 583.153,612.187 596.858,602.419 610.716,592.87 624.724,583.542 638.878,574.438 653.175,565.559 667.611,556.908 682.182,548.488 696.885,540.299 711.716,532.345 726.671,524.627 741.747,517.148 756.94,509.908 772.246,502.911 787.661,496.157 803.181,489.649 818.802,483.387 834.521,477.375 850.333,471.612 866.234,466.101 882.221,460.844 898.29,455.84 914.436,451.092 930.655,446.601 946.943,442.367 963.296,438.393 979.711,434.679 996.182,431.225 1012.71,428.033 1029.28,425.104 1045.9,422.438 1062.55,420.036 1079.25,417.899 1095.97,416.027 1112.72,414.42 1129.5,413.08 1146.29,412.006 1163.1,411.198 1179.92,410.657 1196.75,410.383 1213.58,410.376 1230.41,410.636 1247.23,411.163 1264.04,411.957 1280.84,413.018 1297.61,414.345 1314.37,415.938 1331.09,417.796 1347.79,419.92 1364.45,422.308 1381.07,424.96 1397.64,427.876 1414.17,431.054 1430.64,434.494 1447.06,438.195 1463.42,442.156 1479.71,446.376 1495.93,450.854 1512.08,455.589 1528.15,460.579 1544.14,465.824 1560.05,471.322 1575.87,477.071 1591.59,483.071 1607.22,489.32 1622.74,495.815 1638.16,502.556 1653.47,509.541 1668.67,516.768 1683.76,524.236 1698.72,531.941 1713.55,539.883 1728.26,548.059 1742.84,556.468 1757.29,565.107 1771.59,573.974 1785.75,583.067 1799.77,592.384 1813.63,601.921 1827.35,611.678 1840.9,621.65 1854.3,631.837 1867.53,642.235 1880.6,652.841 1893.49,663.654 1906.22,674.669 1918.76,685.886 1931.13,697.299 1943.32,708.908 1955.32,720.709 1967.13,732.698 1978.74,744.873 1990.17,757.231 2001.4,769.769 2012.42,782.483 2023.24,795.371 2033.86,808.429 "/>
<polyline clip-path="url(#clip132)" style="stroke:#000000; stroke-linecap:round; stroke-linejoin:round; stroke-width:8; stroke-opacity:1; fill:none" points="542.992,642.777 552.064,635.6 561.214,628.523 570.44,621.546 579.741,614.67 589.117,607.896 598.567,601.224 608.088,594.656 617.681,588.192 627.343,581.833 637.075,575.58 646.874,569.433 656.739,563.394 666.67,557.463 676.664,551.64 686.722,545.926 696.841,540.323 707.021,534.83 717.26,529.449 727.557,524.179 737.912,519.022 748.321,513.979 758.785,509.049 769.303,504.234 779.872,499.533 790.491,494.948 801.16,490.48 811.878,486.127 822.642,481.892 833.451,477.775 844.305,473.776 855.202,469.895 866.14,466.133 877.119,462.491 888.137,458.969 899.193,455.567 910.285,452.286 921.412,449.126 932.573,446.088 943.766,443.171 954.991,440.377 966.245,437.706 977.528,435.157 988.838,432.731 1000.17,430.429 1011.53,428.251 1022.92,426.196 1034.32,424.266 1045.75,422.461 1057.19,420.78 1068.65,419.224 1080.13,417.793 1091.63,416.487 1103.13,415.307 1114.65,414.253 1126.18,413.324 1137.72,412.52 1149.27,411.843 1160.82,411.292 1172.38,410.867 1183.95,410.567 1195.51,410.394 1207.08,410.347 1218.64,410.426 1230.21,410.632 1241.77,410.963 1253.33,411.421 1264.88,412.004 1276.43,412.714 1287.97,413.549 1299.49,414.51 1311.01,415.597 1322.51,416.809 1334,418.147 1345.48,419.609 1356.93,421.197 1368.37,422.91 1379.79,424.748 1391.19,426.709 1402.57,428.795 1413.93,431.005 1425.25,433.339 1436.56,435.796 1447.83,438.376 1459.08,441.079 1470.3,443.905 1481.48,446.852 1492.64,449.922 1503.75,453.113 1514.84,456.425 1525.88,459.857 1536.89,463.41 1547.86,467.083 1558.79,470.875 1569.67,474.786 1580.52,478.815 1591.31,482.963 1602.07,487.228 1612.77,491.61 1623.43,496.108 "/>
<polyline clip-path="url(#clip132)" style="stroke:#000000; stroke-linecap:round; stroke-linejoin:round; stroke-width:4; stroke-opacity:1; fill:none" points="1110.94,1352.71 1112.24,1351.69 1113.55,1350.68 1114.86,1349.68 1116.19,1348.7 1117.53,1347.73 1118.88,1346.78 1120.24,1345.84 1121.61,1344.92 1122.99,1344.01 1124.38,1343.11 1125.78,1342.24 1127.19,1341.37 1128.61,1340.53 1130.04,1339.69 1131.48,1338.88 1132.92,1338.08 1134.38,1337.29 1135.84,1336.52 1137.31,1335.77 1138.79,1335.04 1140.28,1334.31 1141.77,1333.61 1143.27,1332.92 1144.78,1332.25 1146.3,1331.6 1147.82,1330.96 1149.35,1330.34 1150.89,1329.73 1152.44,1329.14 1153.99,1328.57 1155.54,1328.02 1157.11,1327.48 1158.67,1326.96 1160.25,1326.46 1161.83,1325.97 1163.41,1325.5 1165,1325.05 1166.6,1324.62 1168.2,1324.2 1169.8,1323.8 1171.41,1323.42 1173.02,1323.05 1174.63,1322.71 1176.25,1322.38 1177.88,1322.07 1179.5,1321.77 1181.13,1321.5 1182.76,1321.24 1184.4,1321 1186.04,1320.78 1187.68,1320.57 1189.32,1320.39 1190.96,1320.22 1192.61,1320.07 1194.26,1319.94 1195.9,1319.82 1197.55,1319.72 1199.2,1319.65 1200.86,1319.58 1202.51,1319.54 1204.16,1319.52 1205.81,1319.51 1207.46,1319.52 1209.12,1319.55 1210.77,1319.6 1212.42,1319.66 1214.07,1319.75 1215.72,1319.85 1217.37,1319.97 1219.01,1320.1 1220.66,1320.26 1222.3,1320.43 1223.94,1320.62 1225.58,1320.83 1227.22,1321.06 1228.85,1321.3 1230.49,1321.57 1232.11,1321.85 1233.74,1322.15 1235.36,1322.46 1236.98,1322.79 1238.59,1323.15 1240.21,1323.51 1241.81,1323.9 1243.41,1324.3 1245.01,1324.73 1246.61,1325.16 1248.19,1325.62 1249.78,1326.09 1251.36,1326.58 1252.93,1327.09 1254.49,1327.62 1256.06,1328.16 1257.61,1328.72 1259.16,1329.29 1260.7,1329.88 1262.24,1330.49 1263.77,1331.12 1265.29,1331.76 "/>
<polyline clip-path="url(#clip132)" style="stroke:#000000; stroke-linecap:round; stroke-linejoin:round; stroke-width:4; stroke-opacity:1; fill:none" points="581.745,611.775 612.747,650.527 573.995,681.529 "/>
<polyline clip-path="url(#clip132)" style="stroke:#000000; stroke-linecap:round; stroke-linejoin:round; stroke-width:4; stroke-opacity:1; fill:none" points="1669.04,515.658 1649.49,561.273 1603.88,541.723 "/>
<polyline clip-path="url(#clip132)" style="stroke:#000000; stroke-linecap:round; stroke-linejoin:round; stroke-width:4; stroke-opacity:1; fill:none" points="1174.6,1432.28 1213.35,1401.28 1244.35,1440.04 "/>
<polyline clip-path="url(#clip132)" style="stroke:#000000; stroke-linecap:round; stroke-linejoin:round; stroke-width:4; stroke-opacity:1; fill:none" stroke-dasharray="16, 10" points="542.992,642.777 1039.27,245.755 1623.43,496.108 1734.06,543.521 "/>
<circle clip-path="url(#clip132)" cx="542.992" cy="642.777" r="14.4" fill="#000000" fill-rule="evenodd" fill-opacity="1" stroke="none"/>
<circle clip-path="url(#clip132)" cx="1039.27" cy="245.755" r="14.4" fill="#000000" fill-rule="evenodd" fill-opacity="1" stroke="none"/>
<circle clip-path="url(#clip132)" cx="1623.43" cy="496.108" r="14.4" fill="#000000" fill-rule="evenodd" fill-opacity="1" stroke="none"/>
<circle clip-path="url(#clip132)" cx="1734.06" cy="543.521" r="14.4" fill="#000000" fill-rule="evenodd" fill-opacity="1" stroke="none"/>
<polyline clip-path="url(#clip132)" style="stroke:#000000; stroke-linecap:round; stroke-linejoin:round; stroke-width:8; stroke-opacity:1; fill:none" points="1734.06,543.521 1623.43,496.108 "/>
<polyline clip-path="url(#clip132)" style="stroke:#000000; stroke-linecap:round; stroke-linejoin:round; stroke-width:4; stroke-opacity:1; fill:none" points="542.992,642.777 698.003,518.768 "/>
<path clip-path="url(#clip132)" d="M669.892 541.257 L658.648 527.201 L698.003 518.768 L681.137 555.313  Z" fill="#000000" fill-rule="evenodd" fill-opacity="1"/>
<polyline clip-path="url(#clip132)" style="stroke:#000000; stroke-linecap:round; stroke-linejoin:round; stroke-width:4; stroke-opacity:1; fill:none" points="669.892,541.257 542.992,642.777 "/>
<polyline clip-path="url(#clip132)" style="stroke:#000000; stroke-linecap:round; stroke-linejoin:round; stroke-width:4; stroke-opacity:1; fill:none" points="1734.06,543.521 1916.52,621.719 "/>
<path clip-path="url(#clip132)" d="M1883.43 607.537 L1890.52 590.993 L1916.52 621.719 L1876.34 624.082  Z" fill="#000000" fill-rule="evenodd" fill-opacity="1"/>
<polyline clip-path="url(#clip132)" style="stroke:#000000; stroke-linecap:round; stroke-linejoin:round; stroke-width:4; stroke-opacity:1; fill:none" points="1883.43,607.537 1734.06,543.521 "/>
<polyline clip-path="url(#clip132)" style="stroke:#808080; stroke-linecap:round; stroke-linejoin:round; stroke-width:4; stroke-opacity:1; fill:none" stroke-dasharray="16, 10" points="542.992,642.777 1205.6,1471.04 1623.43,496.108 "/>
<polyline clip-path="url(#clip132)" style="stroke:#808080; stroke-linecap:round; stroke-linejoin:round; stroke-width:4; stroke-opacity:1; fill:none" stroke-dasharray="16, 10" points="1205.6,1471.04 2033.86,808.429 "/>
<circle clip-path="url(#clip132)" cx="1205.6" cy="1471.04" r="14.4" fill="#808080" fill-rule="evenodd" fill-opacity="1" stroke="#000000" stroke-opacity="1" stroke-width="3.2"/>
<path clip-path="url(#clip130)" d="M369.084 732.744 Q369.084 732.802 369.026 732.859 Q368.653 735.901 367.936 737.593 Q367.219 739.258 365.612 740.032 Q364.436 740.606 362.972 740.606 Q360.763 740.606 357.578 739.143 Q357.463 739.085 356.832 738.798 Q356.201 738.512 355.971 738.425 Q355.742 738.339 355.254 738.167 Q354.766 737.966 354.393 737.909 Q354.02 737.852 353.647 737.852 Q352.844 737.852 352.155 738.196 Q350.749 738.885 349.888 739.917 Q348.999 740.922 348.769 742.729 Q348.712 742.959 348.511 743.131 Q348.31 743.303 348.052 743.303 Q347.794 743.303 347.564 743.102 Q347.335 742.902 347.335 742.615 Q347.335 742.557 347.392 742.5 Q347.765 739.458 348.483 737.794 Q349.2 736.101 350.807 735.327 Q352.069 734.724 353.446 734.724 Q355.598 734.724 358.869 736.216 Q358.984 736.274 359.615 736.56 Q360.246 736.847 360.476 736.933 Q360.706 737.02 361.193 737.22 Q361.681 737.393 362.054 737.45 Q362.427 737.507 362.8 737.507 Q363.517 737.507 364.263 737.134 Q365.669 736.446 366.559 735.441 Q367.448 734.437 367.678 732.63 Q367.735 732.4 367.936 732.228 Q368.137 732.027 368.395 732.027 Q368.653 732.027 368.883 732.257 Q369.084 732.457 369.084 732.744 Z" fill="#000000" fill-rule="nonzero" fill-opacity="1" /><path clip-path="url(#clip130)" d="M373.557 777.299 Q372.491 782.587 371.057 785.62 Q368.72 790.252 364.826 790.252 Q362.121 790.252 360.072 788.735 Q358.063 787.177 357.366 784.595 Q356.588 785.62 355.891 786.317 Q355.235 787.013 353.964 788.079 Q352.694 789.104 350.972 789.678 Q349.291 790.252 347.365 790.252 Q345.889 790.252 344.537 789.965 Q343.184 789.719 341.749 789.022 Q340.356 788.284 339.331 787.177 Q338.347 786.071 337.691 784.267 Q337.036 782.464 337.036 780.168 Q337.036 777.299 338.142 773.405 Q339.29 769.511 341.913 762.543 Q343.348 758.854 343.348 756.804 Q343.348 755.862 343.143 755.247 Q342.938 754.632 342.528 754.427 Q342.159 754.181 341.913 754.14 Q341.667 754.058 341.258 754.058 Q338.716 754.058 336.503 756.64 Q334.289 759.223 332.773 764.469 Q332.445 765.494 332.24 765.74 Q332.035 765.986 331.42 765.986 Q330.395 765.945 330.395 765.125 Q330.395 764.797 330.764 763.527 Q331.133 762.215 331.994 760.288 Q332.896 758.321 334.125 756.558 Q335.355 754.755 337.282 753.484 Q339.249 752.214 341.503 752.214 Q344.578 752.214 346.463 754.222 Q348.39 756.19 348.39 759.1 Q348.39 760.903 346.955 764.387 Q342.405 776.479 342.405 781.521 Q342.405 788.366 347.611 788.366 Q349.332 788.366 350.931 787.669 Q352.571 786.972 353.636 785.989 Q354.702 785.005 355.522 783.939 Q356.383 782.874 356.751 782.177 Q357.161 781.48 357.202 781.316 L363.474 756.067 Q363.72 755.083 364.171 754.427 Q364.662 753.73 365.236 753.484 Q365.81 753.238 366.138 753.197 Q366.466 753.115 366.753 753.115 Q367.778 753.115 368.474 753.73 Q369.212 754.345 369.212 755.411 Q369.212 755.616 368.966 756.599 Q368.761 757.542 368.433 758.936 Q368.106 760.288 367.942 761.026 Q366.63 766.191 366.507 766.724 L364.171 775.782 Q364.048 776.315 363.638 778.037 Q363.269 779.758 363.064 780.66 Q362.859 781.521 362.654 782.71 Q362.49 783.857 362.49 784.513 Q362.49 786.563 363.105 787.464 Q363.72 788.366 365.072 788.366 Q366.343 788.366 367.327 787.505 Q368.351 786.604 369.13 784.882 Q369.909 783.119 370.36 781.685 Q370.811 780.25 371.385 777.996 Q371.59 777.012 371.754 776.766 Q371.959 776.479 372.532 776.479 Q373.557 776.479 373.557 777.299 Z" fill="#000000" fill-rule="nonzero" fill-opacity="1" /><path clip-path="url(#clip130)" d="M406.537 776.607 Q406.537 777.783 405.533 778.759 Q404.529 779.734 403.352 779.734 Q402.377 779.734 401.774 779.132 Q401.2 778.529 401.2 777.611 Q401.2 776.349 402.205 775.43 Q403.209 774.484 404.299 774.484 Q405.303 774.484 405.906 775.115 Q406.537 775.717 406.537 776.607 M404.357 792.761 Q404.357 793.765 404.07 794.941 L398.675 816.461 Q398.159 818.555 396.925 820.277 Q395.691 822.027 394.113 823.117 Q392.564 824.208 390.871 824.782 Q389.207 825.384 387.629 825.384 Q385.419 825.384 383.927 824.409 Q382.435 823.433 382.435 821.74 Q382.435 820.248 383.411 819.301 Q384.415 818.383 385.62 818.383 Q386.711 818.383 387.284 819.014 Q387.858 819.646 387.858 820.449 Q387.858 821.425 387.141 822.343 Q386.452 823.261 385.219 823.548 Q386.338 824.093 387.514 824.093 Q389.924 824.093 391.875 821.884 Q393.855 819.703 394.716 816.26 L400.254 794.339 Q400.655 792.589 400.655 791.355 Q400.655 790.207 400.34 789.576 Q400.024 788.945 399.651 788.801 Q399.307 788.658 398.79 788.658 Q396.523 788.658 394.572 790.752 Q392.621 792.818 391.388 795.831 Q391.043 796.663 390.871 796.835 Q390.728 797.007 390.326 797.007 Q389.609 796.979 389.609 796.405 Q389.609 796.233 389.896 795.544 Q390.182 794.855 390.699 793.851 Q391.215 792.818 392.047 791.699 Q392.88 790.58 393.855 789.605 Q394.859 788.629 396.208 787.998 Q397.556 787.367 398.962 787.367 Q401.229 787.367 402.778 788.859 Q404.357 790.322 404.357 792.761 Z" fill="#000000" fill-rule="nonzero" fill-opacity="1" /><path clip-path="url(#clip130)" d="M438.552 776.561 Q438.634 775.536 440.232 775.536 L491.674 775.536 Q494.092 775.536 494.133 776.479 Q494.133 777.504 491.838 777.463 L440.806 777.463 Q438.552 777.504 438.552 776.561 M438.552 760.166 Q438.552 759.141 440.314 759.182 L491.592 759.182 Q494.092 759.182 494.133 760.166 Q494.133 761.108 492.002 761.108 L440.232 761.108 Q438.552 761.108 438.552 760.166 Z" fill="#000000" fill-rule="nonzero" fill-opacity="1" /><path clip-path="url(#clip130)" d="M565.2 732.744 Q565.2 732.802 565.143 732.859 Q564.77 735.901 564.052 737.593 Q563.335 739.258 561.728 740.032 Q560.552 740.606 559.088 740.606 Q556.879 740.606 553.694 739.143 Q553.579 739.085 552.948 738.798 Q552.317 738.512 552.087 738.425 Q551.858 738.339 551.37 738.167 Q550.882 737.966 550.509 737.909 Q550.136 737.852 549.763 737.852 Q548.96 737.852 548.271 738.196 Q546.865 738.885 546.005 739.917 Q545.115 740.922 544.886 742.729 Q544.828 742.959 544.627 743.131 Q544.427 743.303 544.168 743.303 Q543.91 743.303 543.681 743.102 Q543.451 742.902 543.451 742.615 Q543.451 742.557 543.508 742.5 Q543.881 739.458 544.599 737.794 Q545.316 736.101 546.923 735.327 Q548.185 734.724 549.562 734.724 Q551.714 734.724 554.985 736.216 Q555.1 736.274 555.731 736.56 Q556.363 736.847 556.592 736.933 Q556.822 737.02 557.309 737.22 Q557.797 737.393 558.17 737.45 Q558.543 737.507 558.916 737.507 Q559.634 737.507 560.38 737.134 Q561.786 736.446 562.675 735.441 Q563.564 734.437 563.794 732.63 Q563.851 732.4 564.052 732.228 Q564.253 732.027 564.511 732.027 Q564.77 732.027 564.999 732.257 Q565.2 732.457 565.2 732.744 Z" fill="#000000" fill-rule="nonzero" fill-opacity="1" /><path clip-path="url(#clip130)" d="M569.673 777.299 Q568.608 782.587 567.173 785.62 Q564.837 790.252 560.943 790.252 Q558.237 790.252 556.188 788.735 Q554.179 787.177 553.482 784.595 Q552.704 785.62 552.007 786.317 Q551.351 787.013 550.08 788.079 Q548.81 789.104 547.088 789.678 Q545.408 790.252 543.481 790.252 Q542.005 790.252 540.653 789.965 Q539.3 789.719 537.866 789.022 Q536.472 788.284 535.447 787.177 Q534.463 786.071 533.808 784.267 Q533.152 782.464 533.152 780.168 Q533.152 777.299 534.259 773.405 Q535.406 769.511 538.03 762.543 Q539.464 758.854 539.464 756.804 Q539.464 755.862 539.259 755.247 Q539.054 754.632 538.644 754.427 Q538.275 754.181 538.03 754.14 Q537.784 754.058 537.374 754.058 Q534.832 754.058 532.619 756.64 Q530.406 759.223 528.889 764.469 Q528.561 765.494 528.356 765.74 Q528.151 765.986 527.536 765.986 Q526.512 765.945 526.512 765.125 Q526.512 764.797 526.88 763.527 Q527.249 762.215 528.11 760.288 Q529.012 758.321 530.242 756.558 Q531.471 754.755 533.398 753.484 Q535.365 752.214 537.62 752.214 Q540.694 752.214 542.579 754.222 Q544.506 756.19 544.506 759.1 Q544.506 760.903 543.071 764.387 Q538.521 776.479 538.521 781.521 Q538.521 788.366 543.727 788.366 Q545.449 788.366 547.047 787.669 Q548.687 786.972 549.752 785.989 Q550.818 785.005 551.638 783.939 Q552.499 782.874 552.868 782.177 Q553.278 781.48 553.319 781.316 L559.59 756.067 Q559.836 755.083 560.287 754.427 Q560.779 753.73 561.352 753.484 Q561.926 753.238 562.254 753.197 Q562.582 753.115 562.869 753.115 Q563.894 753.115 564.591 753.73 Q565.328 754.345 565.328 755.411 Q565.328 755.616 565.082 756.599 Q564.878 757.542 564.55 758.936 Q564.222 760.288 564.058 761.026 Q562.746 766.191 562.623 766.724 L560.287 775.782 Q560.164 776.315 559.754 778.037 Q559.385 779.758 559.18 780.66 Q558.975 781.521 558.77 782.71 Q558.606 783.857 558.606 784.513 Q558.606 786.563 559.221 787.464 Q559.836 788.366 561.188 788.366 Q562.459 788.366 563.443 787.505 Q564.468 786.604 565.246 784.882 Q566.025 783.119 566.476 781.685 Q566.927 780.25 567.501 777.996 Q567.706 777.012 567.87 776.766 Q568.075 776.479 568.649 776.479 Q569.673 776.479 569.673 777.299 Z" fill="#000000" fill-rule="nonzero" fill-opacity="1" /><path clip-path="url(#clip130)" d="M602.653 776.607 Q602.653 777.783 601.649 778.759 Q600.645 779.734 599.468 779.734 Q598.493 779.734 597.89 779.132 Q597.317 778.529 597.317 777.611 Q597.317 776.349 598.321 775.43 Q599.325 774.484 600.415 774.484 Q601.42 774.484 602.022 775.115 Q602.653 775.717 602.653 776.607 M600.473 792.761 Q600.473 793.765 600.186 794.941 L594.792 816.461 Q594.275 818.555 593.041 820.277 Q591.808 822.027 590.229 823.117 Q588.68 824.208 586.987 824.782 Q585.323 825.384 583.745 825.384 Q581.536 825.384 580.044 824.409 Q578.552 823.433 578.552 821.74 Q578.552 820.248 579.527 819.301 Q580.531 818.383 581.736 818.383 Q582.827 818.383 583.401 819.014 Q583.975 819.646 583.975 820.449 Q583.975 821.425 583.257 822.343 Q582.569 823.261 581.335 823.548 Q582.454 824.093 583.63 824.093 Q586.04 824.093 587.991 821.884 Q589.971 819.703 590.832 816.26 L596.37 794.339 Q596.771 792.589 596.771 791.355 Q596.771 790.207 596.456 789.576 Q596.14 788.945 595.767 788.801 Q595.423 788.658 594.906 788.658 Q592.64 788.658 590.689 790.752 Q588.737 792.818 587.504 795.831 Q587.159 796.663 586.987 796.835 Q586.844 797.007 586.442 797.007 Q585.725 796.979 585.725 796.405 Q585.725 796.233 586.012 795.544 Q586.299 794.855 586.815 793.851 Q587.332 792.818 588.164 791.699 Q588.996 790.58 589.971 789.605 Q590.975 788.629 592.324 787.998 Q593.673 787.367 595.078 787.367 Q597.345 787.367 598.895 788.859 Q600.473 790.322 600.473 792.761 Z" fill="#000000" fill-rule="nonzero" fill-opacity="1" /><path clip-path="url(#clip130)" d="M603.339 812.386 Q602.507 811.44 602.507 810.206 Q602.507 808.972 603.311 808.054 Q604.143 807.107 605.635 807.107 Q607.385 807.107 608.389 808.8 Q609.394 810.464 609.394 813.276 Q609.394 816.317 608.16 819.129 Q606.926 821.97 605.721 823.318 Q604.516 824.667 604.028 824.667 Q603.454 824.667 603.454 824.036 Q603.454 823.806 603.856 823.376 Q608.074 818.842 608.102 813.276 Q608.102 812.386 607.988 812.386 L607.844 812.501 Q606.84 813.333 605.635 813.333 Q604.171 813.333 603.339 812.386 Z" fill="#000000" fill-rule="nonzero" fill-opacity="1" /><path clip-path="url(#clip130)" d="M627.936 812.559 L627.936 804.812 Q627.936 804.152 627.965 803.922 Q627.993 803.693 628.166 803.52 Q628.338 803.348 628.682 803.348 Q629.084 803.348 629.227 803.52 Q629.399 803.693 629.514 804.353 Q630.404 808.398 632.297 810.55 Q634.22 812.673 637.692 812.673 Q640.991 812.673 642.655 811.21 Q644.319 809.747 644.319 807.337 Q644.319 803.033 638.208 801.942 Q634.679 801.225 633.215 800.766 Q631.752 800.278 630.461 799.217 Q627.936 797.151 627.936 794.224 Q627.936 791.297 630.145 789.145 Q632.383 786.994 637.319 786.994 Q640.618 786.994 642.856 788.658 Q643.516 788.141 643.86 787.711 Q644.635 786.994 645.037 786.994 Q645.496 786.994 645.582 787.309 Q645.668 787.596 645.668 788.428 L645.668 794.339 Q645.668 794.999 645.639 795.228 Q645.611 795.458 645.438 795.63 Q645.266 795.773 644.893 795.773 Q644.233 795.773 644.205 795.228 Q643.746 788.113 637.319 788.113 Q633.847 788.113 632.297 789.461 Q630.748 790.781 630.748 792.589 Q630.748 793.593 631.207 794.368 Q631.695 795.114 632.297 795.573 Q632.929 796.003 634.076 796.433 Q635.224 796.835 635.913 796.979 Q636.63 797.122 637.978 797.409 Q642.684 798.298 644.664 800.221 Q647.131 802.688 647.131 805.816 Q647.131 809.288 644.779 811.64 Q642.426 813.993 637.692 813.993 Q633.875 813.993 631.207 811.44 Q630.863 811.784 630.604 812.099 Q630.346 812.386 630.231 812.501 Q630.145 812.616 630.117 812.702 Q630.088 812.759 630.031 812.817 Q628.854 813.993 628.567 813.993 Q628.108 813.993 628.022 813.678 Q627.936 813.391 627.936 812.559 Z" fill="#000000" fill-rule="nonzero" fill-opacity="1" /><path clip-path="url(#clip130)" d="M648.817 789.834 L648.817 788.543 Q651.514 788.428 653.293 786.534 Q655.1 784.612 655.703 782.259 Q656.334 779.906 656.391 777.181 L657.855 777.181 L657.855 787.998 L666.262 787.998 L666.262 789.834 L657.855 789.834 L657.855 806.16 Q657.855 812.501 661.814 812.501 Q663.507 812.501 664.626 810.78 Q665.745 809.029 665.745 805.931 L665.745 802.688 L667.209 802.688 L667.209 806.045 Q667.209 809.23 665.745 811.612 Q664.282 813.993 661.384 813.993 Q660.322 813.993 659.261 813.706 Q658.228 813.448 656.851 812.759 Q655.502 812.042 654.641 810.321 Q653.809 808.57 653.809 806.045 L653.809 789.834 L648.817 789.834 Z" fill="#000000" fill-rule="nonzero" fill-opacity="1" /><path clip-path="url(#clip130)" d="M670.888 807.738 Q670.888 802.746 676.77 800.106 Q680.299 798.413 687.587 797.983 L687.587 795.831 Q687.587 792.187 685.664 790.264 Q683.771 788.313 681.361 788.313 Q677.057 788.313 674.991 791.01 Q676.741 791.068 677.372 791.957 Q678.004 792.818 678.004 793.708 Q678.004 794.884 677.258 795.659 Q676.54 796.405 675.306 796.405 Q674.13 796.405 673.355 795.687 Q672.581 794.941 672.581 793.65 Q672.581 790.781 675.163 788.887 Q677.774 786.994 681.475 786.994 Q686.296 786.994 689.509 790.236 Q690.513 791.24 691.001 792.531 Q691.518 793.822 691.575 794.683 Q691.632 795.515 691.632 797.179 L691.632 808.915 Q691.632 809.259 691.747 809.833 Q691.862 810.407 692.378 811.153 Q692.924 811.87 693.813 811.87 Q695.936 811.87 695.908 808.111 L695.908 804.812 L697.4 804.812 L697.4 808.111 Q697.4 811.239 695.736 812.472 Q694.1 813.678 692.579 813.678 Q690.628 813.678 689.394 812.243 Q688.161 810.808 687.989 808.857 Q687.099 811.095 685.062 812.559 Q683.053 813.993 680.299 813.993 Q678.176 813.993 676.167 813.448 Q674.187 812.932 672.523 811.468 Q670.888 809.976 670.888 807.738 M675.421 807.681 Q675.421 809.861 676.971 811.267 Q678.52 812.673 680.701 812.673 Q683.168 812.673 685.378 810.78 Q687.587 808.857 687.587 805.099 L687.587 799.217 Q681.074 799.446 678.233 802.057 Q675.421 804.639 675.421 807.681 Z" fill="#000000" fill-rule="nonzero" fill-opacity="1" /><path clip-path="url(#clip130)" d="M698.576 813.333 L698.576 811.526 Q701.703 811.526 702.421 811.153 Q703.167 810.751 703.167 808.857 L703.167 793.105 Q703.167 790.924 702.392 790.379 Q701.646 789.834 698.576 789.834 L698.576 787.998 L706.753 787.367 L706.753 793.822 Q707.585 791.297 709.336 789.346 Q711.114 787.367 713.984 787.367 Q715.877 787.367 717.082 788.428 Q718.316 789.49 718.316 790.953 Q718.316 792.244 717.513 792.904 Q716.738 793.535 715.791 793.535 Q714.73 793.535 713.984 792.876 Q713.266 792.187 713.266 791.01 Q713.266 790.293 713.582 789.748 Q713.926 789.174 714.185 788.973 Q714.443 788.772 714.615 788.715 Q714.5 788.658 713.984 788.658 Q710.741 788.658 708.876 791.9 Q707.04 795.114 707.04 799.704 L707.04 808.742 Q707.04 810.435 707.729 810.98 Q708.446 811.526 711.516 811.526 L712.75 811.526 L712.75 813.333 Q710.397 813.161 705.29 813.161 Q704.573 813.161 703.454 813.19 Q702.335 813.218 700.871 813.276 Q699.408 813.333 698.576 813.333 Z" fill="#000000" fill-rule="nonzero" fill-opacity="1" /><path clip-path="url(#clip130)" d="M724.066 789.834 L724.066 788.543 Q726.763 788.428 728.542 786.534 Q730.35 784.612 730.952 782.259 Q731.584 779.906 731.641 777.181 L733.104 777.181 L733.104 787.998 L741.511 787.998 L741.511 789.834 L733.104 789.834 L733.104 806.16 Q733.104 812.501 737.064 812.501 Q738.757 812.501 739.876 810.78 Q740.995 809.029 740.995 805.931 L740.995 802.688 L742.458 802.688 L742.458 806.045 Q742.458 809.23 740.995 811.612 Q739.531 813.993 736.634 813.993 Q735.572 813.993 734.51 813.706 Q733.477 813.448 732.1 812.759 Q730.752 812.042 729.891 810.321 Q729.059 808.57 729.059 806.045 L729.059 789.834 L724.066 789.834 Z" fill="#000000" fill-rule="nonzero" fill-opacity="1" /><path clip-path="url(#clip130)" d="M986.934 63.4281 Q986.934 63.4855 986.877 63.5429 Q986.504 66.5843 985.786 68.2771 Q985.069 69.9413 983.462 70.716 Q982.286 71.2899 980.823 71.2899 Q978.613 71.2899 975.428 69.8265 Q975.314 69.7692 974.682 69.4822 Q974.051 69.1953 973.822 69.1092 Q973.592 69.0231 973.104 68.851 Q972.616 68.6501 972.243 68.5928 Q971.87 68.5354 971.497 68.5354 Q970.694 68.5354 970.005 68.8797 Q968.6 69.5683 967.739 70.6012 Q966.849 71.6055 966.62 73.4131 Q966.562 73.6426 966.361 73.8148 Q966.161 73.9869 965.902 73.9869 Q965.644 73.9869 965.415 73.7861 Q965.185 73.5853 965.185 73.2983 Q965.185 73.2409 965.242 73.1836 Q965.615 70.1422 966.333 68.478 Q967.05 66.7851 968.657 66.0104 Q969.919 65.4079 971.297 65.4079 Q973.449 65.4079 976.719 66.8999 Q976.834 66.9573 977.465 67.2442 Q978.097 67.5311 978.326 67.6172 Q978.556 67.7033 979.044 67.9041 Q979.531 68.0763 979.904 68.1337 Q980.277 68.1911 980.65 68.1911 Q981.368 68.1911 982.114 67.8181 Q983.52 67.1294 984.409 66.1252 Q985.299 65.121 985.528 63.3133 Q985.585 63.0838 985.786 62.9116 Q985.987 62.7108 986.245 62.7108 Q986.504 62.7108 986.733 62.9403 Q986.934 63.1412 986.934 63.4281 Z" fill="#000000" fill-rule="nonzero" fill-opacity="1" /><path clip-path="url(#clip130)" d="M991.407 107.983 Q990.342 113.27 988.907 116.304 Q986.571 120.935 982.677 120.935 Q979.971 120.935 977.922 119.419 Q975.913 117.861 975.217 115.279 Q974.438 116.304 973.741 117 Q973.085 117.697 971.814 118.763 Q970.544 119.788 968.822 120.362 Q967.142 120.935 965.215 120.935 Q963.74 120.935 962.387 120.648 Q961.034 120.403 959.6 119.706 Q958.206 118.968 957.181 117.861 Q956.198 116.754 955.542 114.951 Q954.886 113.147 954.886 110.852 Q954.886 107.983 955.993 104.089 Q957.14 100.195 959.764 93.2266 Q961.198 89.5376 961.198 87.4881 Q961.198 86.5454 960.993 85.9305 Q960.788 85.3157 960.378 85.1107 Q960.01 84.8648 959.764 84.8238 Q959.518 84.7418 959.108 84.7418 Q956.566 84.7418 954.353 87.3242 Q952.14 89.9065 950.623 95.1531 Q950.295 96.1778 950.09 96.4238 Q949.885 96.6697 949.27 96.6697 Q948.246 96.6287 948.246 95.8089 Q948.246 95.481 948.615 94.2104 Q948.983 92.8987 949.844 90.9722 Q950.746 89.0047 951.976 87.2422 Q953.205 85.4387 955.132 84.168 Q957.099 82.8973 959.354 82.8973 Q962.428 82.8973 964.313 84.9058 Q966.24 86.8733 966.24 89.7835 Q966.24 91.587 964.805 95.0711 Q960.255 107.163 960.255 112.205 Q960.255 119.05 965.461 119.05 Q967.183 119.05 968.781 118.353 Q970.421 117.656 971.487 116.672 Q972.552 115.689 973.372 114.623 Q974.233 113.557 974.602 112.86 Q975.012 112.164 975.053 112 L981.324 86.7503 Q981.57 85.7666 982.021 85.1107 Q982.513 84.4139 983.087 84.168 Q983.66 83.9221 983.988 83.8811 Q984.316 83.7991 984.603 83.7991 Q985.628 83.7991 986.325 84.4139 Q987.062 85.0288 987.062 86.0945 Q987.062 86.2994 986.817 87.2832 Q986.612 88.2259 986.284 89.6196 Q985.956 90.9722 985.792 91.71 Q984.48 96.8747 984.357 97.4075 L982.021 106.466 Q981.898 106.999 981.488 108.721 Q981.119 110.442 980.914 111.344 Q980.709 112.205 980.504 113.393 Q980.34 114.541 980.34 115.197 Q980.34 117.246 980.955 118.148 Q981.57 119.05 982.923 119.05 Q984.193 119.05 985.177 118.189 Q986.202 117.287 986.981 115.566 Q987.759 113.803 988.21 112.369 Q988.661 110.934 989.235 108.68 Q989.44 107.696 989.604 107.45 Q989.809 107.163 990.383 107.163 Q991.407 107.163 991.407 107.983 Z" fill="#000000" fill-rule="nonzero" fill-opacity="1" /><path clip-path="url(#clip130)" d="M1024.39 107.56 Q1024.39 108.736 1023.38 109.712 Q1022.38 110.687 1021.2 110.687 Q1020.23 110.687 1019.62 110.085 Q1019.05 109.482 1019.05 108.564 Q1019.05 107.301 1020.05 106.383 Q1021.06 105.436 1022.15 105.436 Q1023.15 105.436 1023.76 106.068 Q1024.39 106.67 1024.39 107.56 M1022.21 123.714 Q1022.21 124.718 1021.92 125.894 L1016.53 147.414 Q1016.01 149.508 1014.78 151.23 Q1013.54 152.98 1011.96 154.07 Q1010.41 155.161 1008.72 155.734 Q1007.06 156.337 1005.48 156.337 Q1003.27 156.337 1001.78 155.361 Q1000.29 154.386 1000.29 152.693 Q1000.29 151.201 1001.26 150.254 Q1002.27 149.336 1003.47 149.336 Q1004.56 149.336 1005.13 149.967 Q1005.71 150.598 1005.71 151.402 Q1005.71 152.377 1004.99 153.295 Q1004.3 154.214 1003.07 154.501 Q1004.19 155.046 1005.36 155.046 Q1007.77 155.046 1009.73 152.836 Q1011.71 150.656 1012.57 147.213 L1018.1 125.292 Q1018.51 123.541 1018.51 122.308 Q1018.51 121.16 1018.19 120.529 Q1017.87 119.897 1017.5 119.754 Q1017.16 119.611 1016.64 119.611 Q1014.37 119.611 1012.42 121.705 Q1010.47 123.771 1009.24 126.784 Q1008.89 127.616 1008.72 127.788 Q1008.58 127.96 1008.18 127.96 Q1007.46 127.931 1007.46 127.357 Q1007.46 127.185 1007.75 126.497 Q1008.03 125.808 1008.55 124.804 Q1009.07 123.771 1009.9 122.652 Q1010.73 121.533 1011.71 120.557 Q1012.71 119.582 1014.06 118.951 Q1015.41 118.319 1016.81 118.319 Q1019.08 118.319 1020.63 119.811 Q1022.21 121.275 1022.21 123.714 Z" fill="#000000" fill-rule="nonzero" fill-opacity="1" /><path clip-path="url(#clip130)" d="M1025.07 143.339 Q1024.24 142.392 1024.24 141.159 Q1024.24 139.925 1025.04 139.007 Q1025.88 138.06 1027.37 138.06 Q1029.12 138.06 1030.12 139.753 Q1031.13 141.417 1031.13 144.229 Q1031.13 147.27 1029.89 150.082 Q1028.66 152.922 1027.45 154.271 Q1026.25 155.62 1025.76 155.62 Q1025.19 155.62 1025.19 154.988 Q1025.19 154.759 1025.59 154.328 Q1029.81 149.795 1029.84 144.229 Q1029.84 143.339 1029.72 143.339 L1029.58 143.454 Q1028.57 144.286 1027.37 144.286 Q1025.91 144.286 1025.07 143.339 Z" fill="#000000" fill-rule="nonzero" fill-opacity="1" /><path clip-path="url(#clip130)" d="M1049.67 144.286 L1049.67 142.478 Q1052.8 142.478 1053.51 142.105 Q1054.23 141.704 1054.23 139.81 L1054.23 124 Q1054.23 121.82 1053.49 121.303 Q1052.77 120.787 1049.9 120.787 L1049.9 118.951 L1058.11 118.319 L1058.11 139.867 Q1058.11 141.618 1058.74 142.048 Q1059.37 142.478 1062.24 142.478 L1062.24 144.286 Q1056.24 144.114 1056.13 144.114 Q1055.32 144.114 1049.67 144.286 M1052.14 108.076 Q1052.14 106.9 1053.03 105.953 Q1053.95 104.977 1055.24 104.977 Q1056.53 104.977 1057.45 105.867 Q1058.36 106.728 1058.36 108.105 Q1058.36 109.453 1057.45 110.343 Q1056.53 111.204 1055.24 111.204 Q1053.89 111.204 1053 110.257 Q1052.14 109.31 1052.14 108.076 Z" fill="#000000" fill-rule="nonzero" fill-opacity="1" /><path clip-path="url(#clip130)" d="M1066.25 144.286 L1066.25 142.478 Q1069.38 142.478 1070.1 142.105 Q1070.82 141.704 1070.82 139.81 L1070.82 124.058 Q1070.82 121.877 1070.04 121.332 Q1069.29 120.787 1066.25 120.787 L1066.25 118.951 L1074.52 118.319 L1074.52 124.488 Q1077.27 118.319 1083.21 118.319 Q1087.63 118.319 1089.38 120.5 Q1090.67 121.963 1090.93 123.599 Q1091.22 125.234 1091.22 129.481 L1091.22 140.699 Q1091.27 141.933 1092.22 142.22 Q1093.17 142.478 1095.81 142.478 L1095.81 144.286 Q1089.81 144.114 1089.21 144.114 Q1088.75 144.114 1082.58 144.286 L1082.58 142.478 Q1085.71 142.478 1086.42 142.105 Q1087.17 141.704 1087.17 139.81 L1087.17 126.124 Q1087.17 123.14 1086.25 121.389 Q1085.33 119.611 1082.81 119.611 Q1079.77 119.611 1077.33 122.164 Q1074.89 124.718 1074.89 129.022 L1074.89 139.81 Q1074.89 141.704 1075.61 142.105 Q1076.35 142.478 1079.45 142.478 L1079.45 144.286 Q1073.45 144.114 1072.88 144.114 Q1072.42 144.114 1066.25 144.286 Z" fill="#000000" fill-rule="nonzero" fill-opacity="1" /><path clip-path="url(#clip130)" d="M1098.77 120.787 L1098.77 119.496 Q1101.47 119.381 1103.25 117.487 Q1105.05 115.565 1105.66 113.212 Q1106.29 110.859 1106.35 108.134 L1107.81 108.134 L1107.81 118.951 L1116.22 118.951 L1116.22 120.787 L1107.81 120.787 L1107.81 137.113 Q1107.81 143.454 1111.77 143.454 Q1113.46 143.454 1114.58 141.732 Q1115.7 139.982 1115.7 136.883 L1115.7 133.641 L1117.16 133.641 L1117.16 136.998 Q1117.16 140.183 1115.7 142.565 Q1114.24 144.946 1111.34 144.946 Q1110.28 144.946 1109.21 144.659 Q1108.18 144.401 1106.8 143.712 Q1105.46 142.995 1104.59 141.273 Q1103.76 139.523 1103.76 136.998 L1103.76 120.787 L1098.77 120.787 Z" fill="#000000" fill-rule="nonzero" fill-opacity="1" /><path clip-path="url(#clip130)" d="M1561.61 313.345 Q1561.61 313.402 1561.55 313.46 Q1561.18 316.501 1560.46 318.194 Q1559.74 319.858 1558.14 320.633 Q1556.96 321.207 1555.5 321.207 Q1553.29 321.207 1550.1 319.744 Q1549.99 319.686 1549.36 319.399 Q1548.73 319.112 1548.5 319.026 Q1548.27 318.94 1547.78 318.768 Q1547.29 318.567 1546.92 318.51 Q1546.54 318.452 1546.17 318.452 Q1545.37 318.452 1544.68 318.797 Q1543.27 319.485 1542.41 320.518 Q1541.52 321.522 1541.29 323.33 Q1541.24 323.56 1541.04 323.732 Q1540.84 323.904 1540.58 323.904 Q1540.32 323.904 1540.09 323.703 Q1539.86 323.502 1539.86 323.215 Q1539.86 323.158 1539.92 323.101 Q1540.29 320.059 1541.01 318.395 Q1541.72 316.702 1543.33 315.927 Q1544.59 315.325 1545.97 315.325 Q1548.12 315.325 1551.39 316.817 Q1551.51 316.874 1552.14 317.161 Q1552.77 317.448 1553 317.534 Q1553.23 317.62 1553.72 317.821 Q1554.21 317.993 1554.58 318.051 Q1554.95 318.108 1555.32 318.108 Q1556.04 318.108 1556.79 317.735 Q1558.19 317.046 1559.08 316.042 Q1559.97 315.038 1560.2 313.23 Q1560.26 313.001 1560.46 312.829 Q1560.66 312.628 1560.92 312.628 Q1561.18 312.628 1561.41 312.857 Q1561.61 313.058 1561.61 313.345 Z" fill="#000000" fill-rule="nonzero" fill-opacity="1" /><path clip-path="url(#clip130)" d="M1566.08 357.9 Q1565.02 363.187 1563.58 366.221 Q1561.25 370.852 1557.35 370.852 Q1554.65 370.852 1552.6 369.336 Q1550.59 367.778 1549.89 365.196 Q1549.11 366.221 1548.42 366.917 Q1547.76 367.614 1546.49 368.68 Q1545.22 369.705 1543.5 370.279 Q1541.82 370.852 1539.89 370.852 Q1538.41 370.852 1537.06 370.565 Q1535.71 370.319 1534.27 369.623 Q1532.88 368.885 1531.86 367.778 Q1530.87 366.671 1530.22 364.868 Q1529.56 363.064 1529.56 360.769 Q1529.56 357.9 1530.67 354.006 Q1531.81 350.112 1534.44 343.144 Q1535.87 339.455 1535.87 337.405 Q1535.87 336.462 1535.67 335.848 Q1535.46 335.233 1535.05 335.028 Q1534.68 334.782 1534.44 334.741 Q1534.19 334.659 1533.78 334.659 Q1531.24 334.659 1529.03 337.241 Q1526.81 339.823 1525.3 345.07 Q1524.97 346.095 1524.76 346.341 Q1524.56 346.587 1523.94 346.587 Q1522.92 346.546 1522.92 345.726 Q1522.92 345.398 1523.29 344.127 Q1523.66 342.816 1524.52 340.889 Q1525.42 338.922 1526.65 337.159 Q1527.88 335.356 1529.81 334.085 Q1531.77 332.814 1534.03 332.814 Q1537.1 332.814 1538.99 334.823 Q1540.91 336.79 1540.91 339.701 Q1540.91 341.504 1539.48 344.988 Q1534.93 357.08 1534.93 362.122 Q1534.93 368.967 1540.14 368.967 Q1541.86 368.967 1543.46 368.27 Q1545.1 367.573 1546.16 366.589 Q1547.23 365.606 1548.05 364.54 Q1548.91 363.474 1549.28 362.777 Q1549.69 362.081 1549.73 361.917 L1556 336.667 Q1556.24 335.684 1556.7 335.028 Q1557.19 334.331 1557.76 334.085 Q1558.33 333.839 1558.66 333.798 Q1558.99 333.716 1559.28 333.716 Q1560.3 333.716 1561 334.331 Q1561.74 334.946 1561.74 336.011 Q1561.74 336.216 1561.49 337.2 Q1561.29 338.143 1560.96 339.537 Q1560.63 340.889 1560.47 341.627 Q1559.15 346.792 1559.03 347.325 L1556.7 356.383 Q1556.57 356.916 1556.16 358.638 Q1555.79 360.359 1555.59 361.261 Q1555.38 362.122 1555.18 363.31 Q1555.01 364.458 1555.01 365.114 Q1555.01 367.163 1555.63 368.065 Q1556.24 368.967 1557.6 368.967 Q1558.87 368.967 1559.85 368.106 Q1560.88 367.204 1561.65 365.483 Q1562.43 363.72 1562.88 362.286 Q1563.34 360.851 1563.91 358.597 Q1564.11 357.613 1564.28 357.367 Q1564.48 357.08 1565.06 357.08 Q1566.08 357.08 1566.08 357.9 Z" fill="#000000" fill-rule="nonzero" fill-opacity="1" /><path clip-path="url(#clip130)" d="M1599.06 358.349 Q1599.06 359.526 1598.06 360.501 Q1597.05 361.477 1595.88 361.477 Q1594.9 361.477 1594.3 360.874 Q1593.73 360.272 1593.73 359.354 Q1593.73 358.091 1594.73 357.173 Q1595.73 356.226 1596.82 356.226 Q1597.83 356.226 1598.43 356.857 Q1599.06 357.46 1599.06 358.349 M1596.88 374.503 Q1596.88 375.508 1596.59 376.684 L1591.2 398.203 Q1590.68 400.298 1589.45 402.019 Q1588.22 403.77 1586.64 404.86 Q1585.09 405.95 1583.4 406.524 Q1581.73 407.127 1580.15 407.127 Q1577.94 407.127 1576.45 406.151 Q1574.96 405.176 1574.96 403.483 Q1574.96 401.991 1575.94 401.044 Q1576.94 400.126 1578.15 400.126 Q1579.24 400.126 1579.81 400.757 Q1580.38 401.388 1580.38 402.192 Q1580.38 403.167 1579.67 404.085 Q1578.98 405.003 1577.74 405.29 Q1578.86 405.836 1580.04 405.836 Q1582.45 405.836 1584.4 403.626 Q1586.38 401.446 1587.24 398.002 L1592.78 376.081 Q1593.18 374.331 1593.18 373.097 Q1593.18 371.95 1592.86 371.318 Q1592.55 370.687 1592.18 370.544 Q1591.83 370.4 1591.31 370.4 Q1589.05 370.4 1587.1 372.495 Q1585.15 374.561 1583.91 377.573 Q1583.57 378.406 1583.4 378.578 Q1583.25 378.75 1582.85 378.75 Q1582.13 378.721 1582.13 378.147 Q1582.13 377.975 1582.42 377.287 Q1582.71 376.598 1583.22 375.594 Q1583.74 374.561 1584.57 373.442 Q1585.4 372.323 1586.38 371.347 Q1587.38 370.372 1588.73 369.74 Q1590.08 369.109 1591.49 369.109 Q1593.75 369.109 1595.3 370.601 Q1596.88 372.064 1596.88 374.503 Z" fill="#000000" fill-rule="nonzero" fill-opacity="1" /><path clip-path="url(#clip130)" d="M1599.75 394.129 Q1598.92 393.182 1598.92 391.948 Q1598.92 390.715 1599.72 389.796 Q1600.55 388.85 1602.04 388.85 Q1603.79 388.85 1604.8 390.542 Q1605.8 392.207 1605.8 395.018 Q1605.8 398.06 1604.57 400.872 Q1603.33 403.712 1602.13 405.061 Q1600.92 406.409 1600.44 406.409 Q1599.86 406.409 1599.86 405.778 Q1599.86 405.549 1600.26 405.118 Q1604.48 400.585 1604.51 395.018 Q1604.51 394.129 1604.4 394.129 L1604.25 394.244 Q1603.25 395.076 1602.04 395.076 Q1600.58 395.076 1599.75 394.129 Z" fill="#000000" fill-rule="nonzero" fill-opacity="1" /><path clip-path="url(#clip130)" d="M1624.34 382.136 Q1624.34 376.598 1627.9 372.667 Q1631.46 368.736 1636.57 368.736 Q1641.73 368.736 1644.4 372.093 Q1647.1 375.45 1647.1 380.271 Q1647.1 381.16 1646.87 381.332 Q1646.64 381.504 1645.63 381.504 L1629.22 381.504 Q1629.22 387.501 1631 390.313 Q1633.47 394.244 1637.63 394.244 Q1638.2 394.244 1638.89 394.129 Q1639.58 394.014 1640.99 393.526 Q1642.39 393.01 1643.63 391.661 Q1644.86 390.313 1645.58 388.19 Q1645.75 387.358 1646.32 387.386 Q1647.1 387.386 1647.1 388.075 Q1647.1 388.591 1646.52 389.768 Q1645.98 390.915 1644.92 392.293 Q1643.86 393.67 1641.79 394.703 Q1639.75 395.736 1637.28 395.736 Q1632.12 395.736 1628.22 391.834 Q1624.34 387.903 1624.34 382.136 M1629.28 380.271 L1643.22 380.271 Q1643.22 379.037 1642.99 377.66 Q1642.79 376.282 1642.16 374.389 Q1641.56 372.466 1640.13 371.261 Q1638.69 370.056 1636.57 370.056 Q1635.62 370.056 1634.59 370.458 Q1633.58 370.859 1632.35 371.835 Q1631.12 372.81 1630.26 375.02 Q1629.39 377.229 1629.28 380.271 Z" fill="#000000" fill-rule="nonzero" fill-opacity="1" /><path clip-path="url(#clip130)" d="M1649 395.076 L1649 393.268 Q1652.13 393.268 1652.84 392.895 Q1653.56 392.494 1653.56 390.6 L1653.56 374.848 Q1653.56 372.667 1652.79 372.122 Q1652.04 371.577 1649 371.577 L1649 369.74 L1657.26 369.109 L1657.26 375.278 Q1660.02 369.109 1665.96 369.109 Q1670.38 369.109 1672.13 371.29 Q1673.42 372.753 1673.68 374.389 Q1673.96 376.024 1673.96 380.271 L1673.96 391.489 Q1674.02 392.723 1674.97 393.01 Q1675.91 393.268 1678.55 393.268 L1678.55 395.076 Q1672.56 394.904 1671.95 394.904 Q1671.49 394.904 1665.33 395.076 L1665.33 393.268 Q1668.45 393.268 1669.17 392.895 Q1669.92 392.494 1669.92 390.6 L1669.92 376.914 Q1669.92 373.929 1669 372.179 Q1668.08 370.4 1665.56 370.4 Q1662.51 370.4 1660.08 372.954 Q1657.64 375.508 1657.64 379.811 L1657.64 390.6 Q1657.64 392.494 1658.35 392.895 Q1659.1 393.268 1662.2 393.268 L1662.2 395.076 Q1656.2 394.904 1655.63 394.904 Q1655.17 394.904 1649 395.076 Z" fill="#000000" fill-rule="nonzero" fill-opacity="1" /><path clip-path="url(#clip130)" d="M1682.69 382.451 Q1682.69 376.856 1686.6 372.983 Q1690.5 369.109 1695.78 369.109 Q1700.25 369.109 1703.18 372.753 L1703.18 360.042 Q1703.18 357.862 1702.4 357.317 Q1701.66 356.771 1698.62 356.771 L1698.62 354.935 L1707.08 354.304 L1707.08 389.969 Q1707.08 392.149 1707.83 392.723 Q1708.6 393.268 1711.64 393.268 L1711.64 395.076 L1703.01 395.736 L1703.01 391.834 Q1699.97 395.707 1695.15 395.736 Q1690.1 395.736 1686.39 391.862 Q1682.69 387.989 1682.69 382.451 M1687.57 382.509 Q1687.57 387.96 1689.26 390.657 Q1691.62 394.416 1695.43 394.416 Q1699.79 394.416 1702.38 390.313 Q1703.04 389.309 1703.01 388.132 L1703.01 376.081 Q1703.01 374.905 1702.38 373.929 Q1699.97 370.4 1696.03 370.4 Q1691.93 370.4 1689.38 374.159 Q1687.57 376.971 1687.57 382.509 Z" fill="#000000" fill-rule="nonzero" fill-opacity="1" /><path clip-path="url(#clip130)" d="M1676.78 633.404 Q1676.78 633.461 1676.72 633.518 Q1676.35 636.56 1675.63 638.253 Q1674.92 639.917 1673.31 640.692 Q1672.13 641.265 1670.67 641.265 Q1668.46 641.265 1665.28 639.802 Q1665.16 639.745 1664.53 639.458 Q1663.9 639.171 1663.67 639.085 Q1663.44 638.999 1662.95 638.827 Q1662.46 638.626 1662.09 638.568 Q1661.72 638.511 1661.34 638.511 Q1660.54 638.511 1659.85 638.855 Q1658.45 639.544 1657.59 640.577 Q1656.7 641.581 1656.47 643.389 Q1656.41 643.618 1656.21 643.79 Q1656.01 643.962 1655.75 643.962 Q1655.49 643.962 1655.26 643.762 Q1655.03 643.561 1655.03 643.274 Q1655.03 643.216 1655.09 643.159 Q1655.46 640.118 1656.18 638.454 Q1656.9 636.761 1658.5 635.986 Q1659.77 635.383 1661.14 635.383 Q1663.3 635.383 1666.57 636.875 Q1666.68 636.933 1667.31 637.22 Q1667.94 637.507 1668.17 637.593 Q1668.4 637.679 1668.89 637.88 Q1669.38 638.052 1669.75 638.109 Q1670.12 638.167 1670.5 638.167 Q1671.21 638.167 1671.96 637.794 Q1673.37 637.105 1674.26 636.101 Q1675.15 635.096 1675.37 633.289 Q1675.43 633.059 1675.63 632.887 Q1675.83 632.686 1676.09 632.686 Q1676.35 632.686 1676.58 632.916 Q1676.78 633.117 1676.78 633.404 Z" fill="#000000" fill-rule="nonzero" fill-opacity="1" /><path clip-path="url(#clip130)" d="M1681.25 677.958 Q1680.19 683.246 1678.75 686.279 Q1676.42 690.911 1672.52 690.911 Q1669.82 690.911 1667.77 689.394 Q1665.76 687.837 1665.06 685.254 Q1664.28 686.279 1663.59 686.976 Q1662.93 687.673 1661.66 688.738 Q1660.39 689.763 1658.67 690.337 Q1656.99 690.911 1655.06 690.911 Q1653.59 690.911 1652.23 690.624 Q1650.88 690.378 1649.45 689.681 Q1648.05 688.943 1647.03 687.837 Q1646.04 686.73 1645.39 684.926 Q1644.73 683.123 1644.73 680.828 Q1644.73 677.958 1645.84 674.064 Q1646.99 670.17 1649.61 663.202 Q1651.05 659.513 1651.05 657.464 Q1651.05 656.521 1650.84 655.906 Q1650.64 655.291 1650.23 655.086 Q1649.86 654.84 1649.61 654.799 Q1649.36 654.717 1648.95 654.717 Q1646.41 654.717 1644.2 657.3 Q1641.99 659.882 1640.47 665.129 Q1640.14 666.153 1639.94 666.399 Q1639.73 666.645 1639.12 666.645 Q1638.09 666.604 1638.09 665.784 Q1638.09 665.457 1638.46 664.186 Q1638.83 662.874 1639.69 660.948 Q1640.59 658.98 1641.82 657.218 Q1643.05 655.414 1644.98 654.144 Q1646.95 652.873 1649.2 652.873 Q1652.27 652.873 1654.16 654.881 Q1656.09 656.849 1656.09 659.759 Q1656.09 661.563 1654.65 665.047 Q1650.1 677.138 1650.1 682.18 Q1650.1 689.025 1655.31 689.025 Q1657.03 689.025 1658.63 688.329 Q1660.27 687.632 1661.33 686.648 Q1662.4 685.664 1663.22 684.599 Q1664.08 683.533 1664.45 682.836 Q1664.86 682.139 1664.9 681.975 L1671.17 656.726 Q1671.42 655.742 1671.87 655.086 Q1672.36 654.389 1672.93 654.144 Q1673.51 653.898 1673.84 653.857 Q1674.16 653.775 1674.45 653.775 Q1675.47 653.775 1676.17 654.389 Q1676.91 655.004 1676.91 656.07 Q1676.91 656.275 1676.66 657.259 Q1676.46 658.201 1676.13 659.595 Q1675.8 660.948 1675.64 661.686 Q1674.33 666.85 1674.2 667.383 L1671.87 676.442 Q1671.74 676.975 1671.33 678.696 Q1670.97 680.418 1670.76 681.319 Q1670.56 682.18 1670.35 683.369 Q1670.19 684.517 1670.19 685.172 Q1670.19 687.222 1670.8 688.124 Q1671.42 689.025 1672.77 689.025 Q1674.04 689.025 1675.02 688.165 Q1676.05 687.263 1676.83 685.541 Q1677.61 683.779 1678.06 682.344 Q1678.51 680.91 1679.08 678.655 Q1679.29 677.671 1679.45 677.425 Q1679.66 677.138 1680.23 677.138 Q1681.25 677.138 1681.25 677.958 Z" fill="#000000" fill-rule="nonzero" fill-opacity="1" /><path clip-path="url(#clip130)" d="M1714.23 677.437 Q1714.23 678.613 1713.23 679.589 Q1712.23 680.564 1711.05 680.564 Q1710.07 680.564 1709.47 679.962 Q1708.9 679.359 1708.9 678.441 Q1708.9 677.179 1709.9 676.26 Q1710.91 675.313 1712 675.313 Q1713 675.313 1713.6 675.945 Q1714.23 676.547 1714.23 677.437 M1712.05 693.591 Q1712.05 694.595 1711.77 695.771 L1706.37 717.291 Q1705.86 719.385 1704.62 721.107 Q1703.39 722.857 1701.81 723.947 Q1700.26 725.038 1698.57 725.611 Q1696.9 726.214 1695.33 726.214 Q1693.12 726.214 1691.62 725.238 Q1690.13 724.263 1690.13 722.57 Q1690.13 721.078 1691.11 720.131 Q1692.11 719.213 1693.32 719.213 Q1694.41 719.213 1694.98 719.844 Q1695.56 720.475 1695.56 721.279 Q1695.56 722.254 1694.84 723.173 Q1694.15 724.091 1692.92 724.378 Q1694.03 724.923 1695.21 724.923 Q1697.62 724.923 1699.57 722.713 Q1701.55 720.533 1702.41 717.09 L1707.95 695.169 Q1708.35 693.418 1708.35 692.185 Q1708.35 691.037 1708.04 690.406 Q1707.72 689.775 1707.35 689.631 Q1707 689.488 1706.49 689.488 Q1704.22 689.488 1702.27 691.582 Q1700.32 693.648 1699.08 696.661 Q1698.74 697.493 1698.57 697.665 Q1698.42 697.837 1698.02 697.837 Q1697.31 697.808 1697.31 697.235 Q1697.31 697.062 1697.59 696.374 Q1697.88 695.685 1698.4 694.681 Q1698.91 693.648 1699.74 692.529 Q1700.58 691.41 1701.55 690.434 Q1702.56 689.459 1703.9 688.828 Q1705.25 688.196 1706.66 688.196 Q1708.93 688.196 1710.48 689.688 Q1712.05 691.152 1712.05 693.591 Z" fill="#000000" fill-rule="nonzero" fill-opacity="1" /><path clip-path="url(#clip130)" d="M1731.74 700.19 Q1730.39 700.19 1730.39 699.473 Q1730.39 698.755 1731.8 698.755 Q1731.97 698.755 1732.26 698.784 Q1732.57 698.813 1732.63 698.813 L1749.19 698.813 L1749.19 682.2 Q1749.19 682.142 1749.16 681.884 Q1749.13 681.597 1749.13 681.425 Q1749.13 680.019 1749.82 680.019 Q1750.53 680.019 1750.53 681.425 L1750.53 698.813 L1767.12 698.813 Q1767.18 698.813 1767.46 698.784 Q1767.75 698.755 1767.92 698.755 Q1769.27 698.755 1769.27 699.473 Q1769.3 700.19 1767.86 700.19 Q1767.69 700.19 1767.43 700.161 Q1767.18 700.133 1767.12 700.133 L1750.53 700.133 L1750.53 717.578 Q1750.53 718.926 1749.82 718.926 Q1749.13 718.926 1749.13 717.52 Q1749.13 717.348 1749.16 717.061 Q1749.19 716.803 1749.19 716.745 L1749.19 700.133 L1732.63 700.133 Q1732.57 700.133 1732.23 700.161 Q1731.91 700.19 1731.74 700.19 Z" fill="#000000" fill-rule="nonzero" fill-opacity="1" /><path clip-path="url(#clip130)" d="M1791.96 680.622 L1791.96 678.785 Q1799.02 678.785 1802.67 675.027 Q1803.67 675.027 1803.84 675.256 Q1804.01 675.486 1804.01 676.547 L1804.01 709.515 Q1804.01 711.265 1804.88 711.81 Q1805.74 712.356 1809.49 712.356 L1811.36 712.356 L1811.36 714.163 Q1809.29 713.991 1801.83 713.991 Q1794.37 713.991 1792.34 714.163 L1792.34 712.356 L1794.2 712.356 Q1797.9 712.356 1798.79 711.839 Q1799.68 711.294 1799.68 709.515 L1799.68 679.072 Q1796.61 680.622 1791.96 680.622 Z" fill="#000000" fill-rule="nonzero" fill-opacity="1" /><path clip-path="url(#clip130)" d="M575.588 462.179 Q575.588 462.236 575.53 462.294 Q575.157 465.335 574.44 467.028 Q573.723 468.692 572.116 469.467 Q570.939 470.041 569.476 470.041 Q567.267 470.041 564.082 468.577 Q563.967 468.52 563.336 468.233 Q562.705 467.946 562.475 467.86 Q562.246 467.774 561.758 467.602 Q561.27 467.401 560.897 467.344 Q560.524 467.286 560.151 467.286 Q559.348 467.286 558.659 467.631 Q557.253 468.319 556.392 469.352 Q555.503 470.356 555.273 472.164 Q555.216 472.394 555.015 472.566 Q554.814 472.738 554.556 472.738 Q554.298 472.738 554.068 472.537 Q553.839 472.336 553.839 472.049 Q553.839 471.992 553.896 471.935 Q554.269 468.893 554.986 467.229 Q555.704 465.536 557.311 464.761 Q558.573 464.159 559.95 464.159 Q562.102 464.159 565.373 465.651 Q565.488 465.708 566.119 465.995 Q566.75 466.282 566.98 466.368 Q567.209 466.454 567.697 466.655 Q568.185 466.827 568.558 466.885 Q568.931 466.942 569.304 466.942 Q570.021 466.942 570.767 466.569 Q572.173 465.88 573.063 464.876 Q573.952 463.872 574.182 462.064 Q574.239 461.835 574.44 461.663 Q574.641 461.462 574.899 461.462 Q575.157 461.462 575.387 461.691 Q575.588 461.892 575.588 462.179 Z" fill="#000000" fill-rule="nonzero" fill-opacity="1" /><path clip-path="url(#clip130)" d="M578.864 482.353 L566.772 530.884 Q566.28 533.056 566.28 534.901 Q566.28 538.754 568.78 538.754 Q570.01 538.754 570.994 537.975 Q571.978 537.196 572.756 535.557 Q573.535 533.917 574.027 532.401 Q574.519 530.843 575.175 528.384 Q575.38 527.4 575.544 527.154 Q575.749 526.867 576.322 526.867 Q577.347 526.867 577.347 527.687 Q576.241 532.974 574.806 536.008 Q572.51 540.639 568.616 540.639 Q565.665 540.639 563.575 538.836 Q561.484 537.032 560.992 534.327 Q555.623 540.639 550.048 540.639 Q545.13 540.639 542.014 536.909 Q538.899 533.138 538.899 527.195 Q538.899 521.211 541.851 515.472 Q544.843 509.734 549.556 506.167 Q554.27 502.601 559.107 502.601 Q564.231 502.601 566.854 507.971 L571.896 488.05 L572.142 486.411 Q572.142 485.919 571.937 485.673 Q571.773 485.386 570.789 485.181 Q569.846 484.976 567.961 484.976 Q567.182 484.976 566.813 484.935 Q566.485 484.894 566.198 484.689 Q565.911 484.443 565.911 483.951 Q565.911 482.517 567.1 482.353 Q574.97 481.451 577.757 481.451 Q578.249 481.451 578.536 481.697 Q578.823 481.902 578.823 482.148 L578.864 482.353 M565.829 511.824 Q565.829 511.455 565.542 510.43 Q565.255 509.406 564.6 507.971 Q563.944 506.536 562.509 505.512 Q561.115 504.446 559.23 504.446 Q556.689 504.446 554.024 506.618 Q551.401 508.791 549.475 512.48 Q547.999 515.431 546.4 521.62 Q544.843 527.81 544.843 530.884 Q544.843 532.769 545.253 534.45 Q545.703 536.09 546.974 537.442 Q548.245 538.754 550.212 538.754 Q555.008 538.754 559.722 532.81 Q560.624 531.786 560.829 531.376 Q561.074 530.925 561.402 529.695 L565.583 513.259 Q565.829 512.029 565.829 511.824 Z" fill="#000000" fill-rule="nonzero" fill-opacity="1" /><path clip-path="url(#clip130)" d="M613.041 526.995 Q613.041 528.171 612.037 529.147 Q611.033 530.122 609.856 530.122 Q608.881 530.122 608.278 529.52 Q607.704 528.917 607.704 527.999 Q607.704 526.736 608.708 525.818 Q609.713 524.871 610.803 524.871 Q611.807 524.871 612.41 525.503 Q613.041 526.105 613.041 526.995 M610.86 543.149 Q610.86 544.153 610.573 545.329 L605.179 566.849 Q604.663 568.943 603.429 570.665 Q602.195 572.415 600.617 573.505 Q599.068 574.596 597.375 575.169 Q595.711 575.772 594.133 575.772 Q591.923 575.772 590.431 574.796 Q588.939 573.821 588.939 572.128 Q588.939 570.636 589.915 569.689 Q590.919 568.771 592.124 568.771 Q593.215 568.771 593.788 569.402 Q594.362 570.033 594.362 570.837 Q594.362 571.812 593.645 572.731 Q592.956 573.649 591.723 573.936 Q592.842 574.481 594.018 574.481 Q596.428 574.481 598.379 572.271 Q600.359 570.091 601.22 566.648 L606.757 544.727 Q607.159 542.976 607.159 541.743 Q607.159 540.595 606.843 539.964 Q606.528 539.332 606.155 539.189 Q605.811 539.046 605.294 539.046 Q603.027 539.046 601.076 541.14 Q599.125 543.206 597.891 546.219 Q597.547 547.051 597.375 547.223 Q597.231 547.395 596.83 547.395 Q596.112 547.366 596.112 546.792 Q596.112 546.62 596.399 545.932 Q596.686 545.243 597.203 544.239 Q597.719 543.206 598.551 542.087 Q599.383 540.968 600.359 539.992 Q601.363 539.017 602.712 538.386 Q604.06 537.754 605.466 537.754 Q607.733 537.754 609.282 539.246 Q610.86 540.71 610.86 543.149 Z" fill="#000000" fill-rule="nonzero" fill-opacity="1" /><path clip-path="url(#clip130)" d="M1859.24 474.324 Q1859.24 474.382 1859.18 474.439 Q1858.81 477.481 1858.09 479.173 Q1857.38 480.838 1855.77 481.612 Q1854.59 482.186 1853.13 482.186 Q1850.92 482.186 1847.74 480.723 Q1847.62 480.665 1846.99 480.378 Q1846.36 480.092 1846.13 480.005 Q1845.9 479.919 1845.41 479.747 Q1844.92 479.546 1844.55 479.489 Q1844.18 479.432 1843.8 479.432 Q1843 479.432 1842.31 479.776 Q1840.91 480.465 1840.05 481.497 Q1839.16 482.502 1838.93 484.309 Q1838.87 484.539 1838.67 484.711 Q1838.47 484.883 1838.21 484.883 Q1837.95 484.883 1837.72 484.682 Q1837.49 484.481 1837.49 484.195 Q1837.49 484.137 1837.55 484.08 Q1837.92 481.038 1838.64 479.374 Q1839.36 477.681 1840.96 476.907 Q1842.23 476.304 1843.6 476.304 Q1845.76 476.304 1849.03 477.796 Q1849.14 477.854 1849.77 478.14 Q1850.4 478.427 1850.63 478.513 Q1850.86 478.6 1851.35 478.8 Q1851.84 478.973 1852.21 479.03 Q1852.58 479.087 1852.96 479.087 Q1853.67 479.087 1854.42 478.714 Q1855.83 478.026 1856.72 477.021 Q1857.61 476.017 1857.84 474.21 Q1857.89 473.98 1858.09 473.808 Q1858.29 473.607 1858.55 473.607 Q1858.81 473.607 1859.04 473.837 Q1859.24 474.037 1859.24 474.324 Z" fill="#000000" fill-rule="nonzero" fill-opacity="1" /><path clip-path="url(#clip130)" d="M1862.52 494.498 L1850.43 543.029 Q1849.93 545.202 1849.93 547.046 Q1849.93 550.899 1852.43 550.899 Q1853.66 550.899 1854.65 550.12 Q1855.63 549.342 1856.41 547.702 Q1857.19 546.062 1857.68 544.546 Q1858.17 542.988 1858.83 540.529 Q1859.03 539.545 1859.2 539.299 Q1859.4 539.012 1859.98 539.012 Q1861 539.012 1861 539.832 Q1859.89 545.12 1858.46 548.153 Q1856.16 552.785 1852.27 552.785 Q1849.32 552.785 1847.23 550.981 Q1845.14 549.178 1844.65 546.472 Q1839.28 552.785 1833.7 552.785 Q1828.78 552.785 1825.67 549.055 Q1822.55 545.284 1822.55 539.34 Q1822.55 533.356 1825.5 527.617 Q1828.5 521.879 1833.21 518.313 Q1837.92 514.747 1842.76 514.747 Q1847.88 514.747 1850.51 520.116 L1855.55 500.195 L1855.8 498.556 Q1855.8 498.064 1855.59 497.818 Q1855.43 497.531 1854.44 497.326 Q1853.5 497.121 1851.61 497.121 Q1850.84 497.121 1850.47 497.08 Q1850.14 497.039 1849.85 496.834 Q1849.56 496.588 1849.56 496.097 Q1849.56 494.662 1850.75 494.498 Q1858.62 493.596 1861.41 493.596 Q1861.9 493.596 1862.19 493.842 Q1862.48 494.047 1862.48 494.293 L1862.52 494.498 M1849.48 523.969 Q1849.48 523.6 1849.2 522.576 Q1848.91 521.551 1848.25 520.116 Q1847.6 518.682 1846.16 517.657 Q1844.77 516.591 1842.88 516.591 Q1840.34 516.591 1837.68 518.764 Q1835.05 520.936 1833.13 524.625 Q1831.65 527.576 1830.05 533.766 Q1828.5 539.955 1828.5 543.029 Q1828.5 544.915 1828.91 546.595 Q1829.36 548.235 1830.63 549.588 Q1831.9 550.899 1833.87 550.899 Q1838.66 550.899 1843.38 544.956 Q1844.28 543.931 1844.48 543.521 Q1844.73 543.07 1845.06 541.841 L1849.24 525.404 Q1849.48 524.174 1849.48 523.969 Z" fill="#000000" fill-rule="nonzero" fill-opacity="1" /><path clip-path="url(#clip130)" d="M1896.69 539.311 Q1896.69 540.487 1895.69 541.463 Q1894.69 542.438 1893.51 542.438 Q1892.53 542.438 1891.93 541.836 Q1891.36 541.233 1891.36 540.315 Q1891.36 539.052 1892.36 538.134 Q1893.37 537.187 1894.46 537.187 Q1895.46 537.187 1896.06 537.819 Q1896.69 538.421 1896.69 539.311 M1894.51 555.464 Q1894.51 556.469 1894.23 557.645 L1888.83 579.164 Q1888.32 581.259 1887.08 582.981 Q1885.85 584.731 1884.27 585.821 Q1882.72 586.911 1881.03 587.485 Q1879.36 588.088 1877.79 588.088 Q1875.58 588.088 1874.08 587.112 Q1872.59 586.137 1872.59 584.444 Q1872.59 582.952 1873.57 582.005 Q1874.57 581.087 1875.78 581.087 Q1876.87 581.087 1877.44 581.718 Q1878.02 582.349 1878.02 583.153 Q1878.02 584.128 1877.3 585.046 Q1876.61 585.965 1875.38 586.251 Q1876.49 586.797 1877.67 586.797 Q1880.08 586.797 1882.03 584.587 Q1884.01 582.407 1884.87 578.964 L1890.41 557.043 Q1890.81 555.292 1890.81 554.059 Q1890.81 552.911 1890.5 552.28 Q1890.18 551.648 1889.81 551.505 Q1889.46 551.361 1888.95 551.361 Q1886.68 551.361 1884.73 553.456 Q1882.78 555.522 1881.54 558.535 Q1881.2 559.367 1881.03 559.539 Q1880.88 559.711 1880.48 559.711 Q1879.77 559.682 1879.77 559.108 Q1879.77 558.936 1880.05 558.248 Q1880.34 557.559 1880.86 556.555 Q1881.37 555.522 1882.2 554.403 Q1883.04 553.284 1884.01 552.308 Q1885.02 551.333 1886.37 550.701 Q1887.71 550.07 1889.12 550.07 Q1891.39 550.07 1892.94 551.562 Q1894.51 553.026 1894.51 555.464 Z" fill="#000000" fill-rule="nonzero" fill-opacity="1" /><path clip-path="url(#clip130)" d="M1914.2 562.064 Q1912.85 562.064 1912.85 561.346 Q1912.85 560.629 1914.26 560.629 Q1914.43 560.629 1914.72 560.658 Q1915.03 560.686 1915.09 560.686 L1931.65 560.686 L1931.65 544.074 Q1931.65 544.016 1931.62 543.758 Q1931.59 543.471 1931.59 543.299 Q1931.59 541.893 1932.28 541.893 Q1932.99 541.893 1932.99 543.299 L1932.99 560.686 L1949.58 560.686 Q1949.64 560.686 1949.92 560.658 Q1950.21 560.629 1950.38 560.629 Q1951.73 560.629 1951.73 561.346 Q1951.76 562.064 1950.32 562.064 Q1950.15 562.064 1949.89 562.035 Q1949.64 562.006 1949.58 562.006 L1932.99 562.006 L1932.99 579.451 Q1932.99 580.8 1932.28 580.8 Q1931.59 580.8 1931.59 579.394 Q1931.59 579.222 1931.62 578.935 Q1931.65 578.677 1931.65 578.619 L1931.65 562.006 L1915.09 562.006 Q1915.03 562.006 1914.69 562.035 Q1914.37 562.064 1914.2 562.064 Z" fill="#000000" fill-rule="nonzero" fill-opacity="1" /><path clip-path="url(#clip130)" d="M1974.42 542.495 L1974.42 540.659 Q1981.48 540.659 1985.13 536.9 Q1986.13 536.9 1986.3 537.13 Q1986.47 537.359 1986.47 538.421 L1986.47 571.389 Q1986.47 573.139 1987.34 573.684 Q1988.2 574.229 1991.95 574.229 L1993.82 574.229 L1993.82 576.037 Q1991.75 575.865 1984.29 575.865 Q1976.83 575.865 1974.8 576.037 L1974.8 574.229 L1976.66 574.229 Q1980.36 574.229 1981.25 573.713 Q1982.14 573.168 1982.14 571.389 L1982.14 540.946 Q1979.07 542.495 1974.42 542.495 Z" fill="#000000" fill-rule="nonzero" fill-opacity="1" /><path clip-path="url(#clip130)" d="M1294.16 1424.92 Q1294.16 1424.98 1294.1 1425.04 Q1293.73 1428.08 1293.01 1429.77 Q1292.29 1431.44 1290.68 1432.21 Q1289.51 1432.79 1288.04 1432.79 Q1285.84 1432.79 1282.65 1431.32 Q1282.54 1431.27 1281.9 1430.98 Q1281.27 1430.69 1281.04 1430.61 Q1280.81 1430.52 1280.33 1430.35 Q1279.84 1430.15 1279.47 1430.09 Q1279.09 1430.03 1278.72 1430.03 Q1277.92 1430.03 1277.23 1430.38 Q1275.82 1431.07 1274.96 1432.1 Q1274.07 1433.1 1273.84 1434.91 Q1273.78 1435.14 1273.58 1435.31 Q1273.38 1435.48 1273.12 1435.48 Q1272.87 1435.48 1272.64 1435.28 Q1272.41 1435.08 1272.41 1434.8 Q1272.41 1434.74 1272.46 1434.68 Q1272.84 1431.64 1273.55 1429.97 Q1274.27 1428.28 1275.88 1427.51 Q1277.14 1426.9 1278.52 1426.9 Q1280.67 1426.9 1283.94 1428.4 Q1284.06 1428.45 1284.69 1428.74 Q1285.32 1429.03 1285.55 1429.11 Q1285.78 1429.2 1286.27 1429.4 Q1286.75 1429.57 1287.13 1429.63 Q1287.5 1429.69 1287.87 1429.69 Q1288.59 1429.69 1289.34 1429.31 Q1290.74 1428.63 1291.63 1427.62 Q1292.52 1426.62 1292.75 1424.81 Q1292.81 1424.58 1293.01 1424.41 Q1293.21 1424.21 1293.47 1424.21 Q1293.73 1424.21 1293.96 1424.44 Q1294.16 1424.64 1294.16 1424.92 Z" fill="#000000" fill-rule="nonzero" fill-opacity="1" /><path clip-path="url(#clip130)" d="M1292.81 1471.77 Q1293.14 1472.14 1293.14 1472.51 Q1293.14 1472.88 1292.32 1473.95 Q1291.54 1475.01 1289.86 1476.45 Q1288.18 1477.88 1286 1479.23 Q1283.83 1480.59 1280.63 1481.49 Q1277.44 1482.43 1274.08 1482.43 Q1267.8 1482.43 1264.12 1478.29 Q1260.47 1474.15 1260.47 1468.21 Q1260.47 1462.43 1263.71 1456.9 Q1266.94 1451.32 1272.19 1447.88 Q1277.44 1444.39 1282.97 1444.39 Q1287.36 1444.39 1290.1 1446.44 Q1292.85 1448.49 1292.85 1451.61 Q1292.85 1454.03 1291.46 1455.5 Q1290.06 1456.98 1288.18 1456.98 Q1286.86 1456.98 1285.96 1456.24 Q1285.06 1455.46 1285.06 1454.03 Q1285.06 1452.18 1286.58 1450.75 Q1287.15 1450.17 1287.81 1449.93 Q1288.5 1449.64 1288.91 1449.64 Q1289.32 1449.6 1290.27 1449.6 Q1289.41 1448 1287.36 1447.14 Q1285.35 1446.24 1283.05 1446.24 Q1279.65 1446.24 1276.41 1448.62 Q1273.17 1450.95 1271.21 1454.64 Q1269.24 1458.25 1267.97 1463.37 Q1266.7 1468.45 1266.7 1471.41 Q1266.7 1475.46 1268.58 1478.01 Q1270.47 1480.55 1274.24 1480.55 Q1274.98 1480.55 1275.76 1480.51 Q1276.58 1480.46 1278.63 1480.01 Q1280.72 1479.56 1282.56 1478.78 Q1284.41 1478.01 1286.74 1476.32 Q1289.12 1474.6 1291 1472.27 Q1291.66 1471.41 1292.11 1471.41 Q1292.48 1471.41 1292.81 1471.77 Z" fill="#000000" fill-rule="nonzero" fill-opacity="1" /><path clip-path="url(#clip130)" d="M1331.61 1468.79 Q1331.61 1469.96 1330.61 1470.94 Q1329.6 1471.91 1328.42 1471.91 Q1327.45 1471.91 1326.85 1471.31 Q1326.27 1470.71 1326.27 1469.79 Q1326.27 1468.53 1327.28 1467.61 Q1328.28 1466.66 1329.37 1466.66 Q1330.38 1466.66 1330.98 1467.3 Q1331.61 1467.9 1331.61 1468.79 M1329.43 1484.94 Q1329.43 1485.95 1329.14 1487.12 L1323.75 1508.64 Q1323.23 1510.74 1322 1512.46 Q1320.76 1514.21 1319.19 1515.3 Q1317.64 1516.39 1315.94 1516.96 Q1314.28 1517.56 1312.7 1517.56 Q1310.49 1517.56 1309 1516.59 Q1307.51 1515.61 1307.51 1513.92 Q1307.51 1512.43 1308.48 1511.48 Q1309.49 1510.56 1310.69 1510.56 Q1311.78 1510.56 1312.36 1511.19 Q1312.93 1511.83 1312.93 1512.63 Q1312.93 1513.61 1312.21 1514.52 Q1311.52 1515.44 1310.29 1515.73 Q1311.41 1516.27 1312.59 1516.27 Q1315 1516.27 1316.95 1514.06 Q1318.93 1511.88 1319.79 1508.44 L1325.33 1486.52 Q1325.73 1484.77 1325.73 1483.54 Q1325.73 1482.39 1325.41 1481.76 Q1325.1 1481.13 1324.72 1480.98 Q1324.38 1480.84 1323.86 1480.84 Q1321.6 1480.84 1319.64 1482.93 Q1317.69 1485 1316.46 1488.01 Q1316.12 1488.84 1315.94 1489.02 Q1315.8 1489.19 1315.4 1489.19 Q1314.68 1489.16 1314.68 1488.59 Q1314.68 1488.41 1314.97 1487.72 Q1315.25 1487.04 1315.77 1486.03 Q1316.29 1485 1317.12 1483.88 Q1317.95 1482.76 1318.93 1481.79 Q1319.93 1480.81 1321.28 1480.18 Q1322.63 1479.55 1324.03 1479.55 Q1326.3 1479.55 1327.85 1481.04 Q1329.43 1482.5 1329.43 1484.94 Z" fill="#000000" fill-rule="nonzero" fill-opacity="1" /><path clip-path="url(#clip130)" d="M778.773 1025.98 Q778.773 1027.04 778.487 1029.13 Q778.2 1031.22 777.503 1034.26 Q776.806 1037.29 775.781 1040.49 Q774.798 1043.68 773.24 1046.88 Q771.682 1050.04 769.838 1052.54 Q767.993 1055.04 765.411 1056.6 Q762.829 1058.15 759.918 1058.15 Q758.566 1058.15 757.254 1057.95 Q755.942 1057.74 754.303 1057.09 Q752.663 1056.43 751.475 1055.37 Q750.286 1054.26 749.466 1052.29 Q748.646 1050.32 748.646 1047.74 Q748.646 1045.08 749.63 1041.51 Q750.655 1037.9 753.442 1030.53 Q754.877 1026.71 754.877 1024.62 Q754.877 1023.68 754.672 1023.11 Q754.467 1022.49 754.057 1022.29 Q753.647 1022.04 753.401 1022 Q753.196 1021.96 752.786 1021.96 Q750.532 1021.96 748.236 1024.3 Q745.941 1026.63 744.302 1032.37 Q743.974 1033.4 743.769 1033.64 Q743.564 1033.89 742.949 1033.89 Q741.924 1033.85 741.924 1033.03 Q741.924 1032.78 742.211 1031.84 Q742.498 1030.85 743.031 1029.38 Q743.564 1027.86 744.506 1026.3 Q745.449 1024.71 746.597 1023.31 Q747.786 1021.92 749.466 1021.02 Q751.147 1020.11 753.032 1020.11 Q756.106 1020.11 757.992 1022.12 Q759.918 1024.09 759.918 1027 Q759.918 1028.6 758.894 1031.18 Q757.172 1035.85 756.393 1038.11 Q755.615 1040.36 754.795 1043.56 Q754.016 1046.76 754.016 1048.97 Q754.016 1052.33 755.574 1054.3 Q757.131 1056.27 760.246 1056.27 Q763.034 1056.27 765.534 1054.26 Q768.075 1052.21 769.756 1049.3 Q771.436 1046.35 772.707 1043.07 Q773.978 1039.75 774.552 1037.25 Q775.166 1034.71 775.166 1033.52 Q775.166 1029.38 772.338 1026.67 Q771.559 1025.89 771.272 1025.4 Q770.986 1024.91 770.986 1024.13 Q770.986 1022.7 772.256 1021.43 Q773.568 1020.11 775.084 1020.11 Q776.478 1020.11 777.626 1021.51 Q778.773 1022.9 778.773 1025.98 Z" fill="#000000" fill-rule="nonzero" fill-opacity="1" /><path clip-path="url(#clip130)" d="M811.47 1044.68 Q811.47 1045.86 810.466 1046.83 Q809.462 1047.81 808.285 1047.81 Q807.31 1047.81 806.707 1047.2 Q806.133 1046.6 806.133 1045.68 Q806.133 1044.42 807.138 1043.5 Q808.142 1042.56 809.232 1042.56 Q810.236 1042.56 810.839 1043.19 Q811.47 1043.79 811.47 1044.68 M809.29 1060.83 Q809.29 1061.84 809.003 1063.01 L803.608 1084.53 Q803.092 1086.63 801.858 1088.35 Q800.624 1090.1 799.046 1091.19 Q797.497 1092.28 795.804 1092.85 Q794.14 1093.46 792.562 1093.46 Q790.353 1093.46 788.861 1092.48 Q787.369 1091.5 787.369 1089.81 Q787.369 1088.32 788.344 1087.37 Q789.348 1086.46 790.553 1086.46 Q791.644 1086.46 792.218 1087.09 Q792.791 1087.72 792.791 1088.52 Q792.791 1089.5 792.074 1090.41 Q791.385 1091.33 790.152 1091.62 Q791.271 1092.16 792.447 1092.16 Q794.857 1092.16 796.808 1089.96 Q798.788 1087.77 799.649 1084.33 L805.187 1062.41 Q805.588 1060.66 805.588 1059.43 Q805.588 1058.28 805.273 1057.65 Q804.957 1057.02 804.584 1056.87 Q804.24 1056.73 803.723 1056.73 Q801.457 1056.73 799.505 1058.82 Q797.554 1060.89 796.321 1063.9 Q795.976 1064.73 795.804 1064.91 Q795.661 1065.08 795.259 1065.08 Q794.542 1065.05 794.542 1064.48 Q794.542 1064.3 794.829 1063.62 Q795.115 1062.93 795.632 1061.92 Q796.148 1060.89 796.98 1059.77 Q797.813 1058.65 798.788 1057.68 Q799.792 1056.7 801.141 1056.07 Q802.489 1055.44 803.895 1055.44 Q806.162 1055.44 807.711 1056.93 Q809.29 1058.39 809.29 1060.83 Z" fill="#000000" fill-rule="nonzero" fill-opacity="1" /><path clip-path="url(#clip130)" d="M812.156 1080.46 Q811.324 1079.51 811.324 1078.28 Q811.324 1077.04 812.128 1076.13 Q812.96 1075.18 814.452 1075.18 Q816.202 1075.18 817.206 1076.87 Q818.21 1078.54 818.21 1081.35 Q818.21 1084.39 816.977 1087.2 Q815.743 1090.04 814.538 1091.39 Q813.333 1092.74 812.845 1092.74 Q812.271 1092.74 812.271 1092.11 Q812.271 1091.88 812.673 1091.45 Q816.891 1086.91 816.919 1081.35 Q816.919 1080.46 816.804 1080.46 L816.661 1080.57 Q815.657 1081.41 814.452 1081.41 Q812.988 1081.41 812.156 1080.46 Z" fill="#000000" fill-rule="nonzero" fill-opacity="1" /><path clip-path="url(#clip130)" d="M836.753 1047.86 L836.753 1046.03 Q843.811 1046.03 847.455 1042.27 Q848.46 1042.27 848.632 1042.5 Q848.804 1042.73 848.804 1043.79 L848.804 1076.76 Q848.804 1078.51 849.665 1079.05 Q850.525 1079.6 854.284 1079.6 L856.149 1079.6 L856.149 1081.41 Q854.083 1081.23 846.623 1081.23 Q839.163 1081.23 837.126 1081.41 L837.126 1079.6 L838.991 1079.6 Q842.692 1079.6 843.582 1079.08 Q844.471 1078.54 844.471 1076.76 L844.471 1046.31 Q841.401 1047.86 836.753 1047.86 Z" fill="#000000" fill-rule="nonzero" fill-opacity="1" /><path clip-path="url(#clip130)" d="M1656.06 1154.16 Q1656.06 1155.23 1655.78 1157.32 Q1655.49 1159.41 1654.79 1162.44 Q1654.1 1165.48 1653.07 1168.67 Q1652.09 1171.87 1650.53 1175.07 Q1648.97 1178.22 1647.13 1180.72 Q1645.28 1183.22 1642.7 1184.78 Q1640.12 1186.34 1637.21 1186.34 Q1635.86 1186.34 1634.55 1186.13 Q1633.23 1185.93 1631.59 1185.27 Q1629.95 1184.62 1628.77 1183.55 Q1627.58 1182.45 1626.76 1180.48 Q1625.94 1178.51 1625.94 1175.93 Q1625.94 1173.26 1626.92 1169.7 Q1627.95 1166.09 1630.73 1158.71 Q1632.17 1154.9 1632.17 1152.81 Q1632.17 1151.87 1631.96 1151.29 Q1631.76 1150.68 1631.35 1150.47 Q1630.94 1150.23 1630.69 1150.19 Q1630.49 1150.15 1630.08 1150.15 Q1627.82 1150.15 1625.53 1152.48 Q1623.23 1154.82 1621.59 1160.56 Q1621.27 1161.58 1621.06 1161.83 Q1620.86 1162.07 1620.24 1162.07 Q1619.22 1162.03 1619.22 1161.21 Q1619.22 1160.97 1619.5 1160.02 Q1619.79 1159.04 1620.32 1157.56 Q1620.86 1156.05 1621.8 1154.49 Q1622.74 1152.89 1623.89 1151.5 Q1625.08 1150.1 1626.76 1149.2 Q1628.44 1148.3 1630.32 1148.3 Q1633.4 1148.3 1635.28 1150.31 Q1637.21 1152.28 1637.21 1155.19 Q1637.21 1156.79 1636.19 1159.37 Q1634.46 1164.04 1633.68 1166.3 Q1632.91 1168.55 1632.09 1171.75 Q1631.31 1174.94 1631.31 1177.16 Q1631.31 1180.52 1632.86 1182.49 Q1634.42 1184.45 1637.54 1184.45 Q1640.33 1184.45 1642.83 1182.45 Q1645.37 1180.4 1647.05 1177.49 Q1648.73 1174.53 1650 1171.25 Q1651.27 1167.93 1651.84 1165.43 Q1652.46 1162.89 1652.46 1161.7 Q1652.46 1157.56 1649.63 1154.86 Q1648.85 1154.08 1648.56 1153.59 Q1648.28 1153.1 1648.28 1152.32 Q1648.28 1150.88 1649.55 1149.61 Q1650.86 1148.3 1652.38 1148.3 Q1653.77 1148.3 1654.92 1149.69 Q1656.06 1151.09 1656.06 1154.16 Z" fill="#000000" fill-rule="nonzero" fill-opacity="1" /><path clip-path="url(#clip130)" d="M1688.76 1172.86 Q1688.76 1174.04 1687.76 1175.02 Q1686.75 1175.99 1685.58 1175.99 Q1684.6 1175.99 1684 1175.39 Q1683.42 1174.79 1683.42 1173.87 Q1683.42 1172.61 1684.43 1171.69 Q1685.43 1170.74 1686.52 1170.74 Q1687.53 1170.74 1688.13 1171.37 Q1688.76 1171.98 1688.76 1172.86 M1686.58 1189.02 Q1686.58 1190.02 1686.29 1191.2 L1680.9 1212.72 Q1680.38 1214.81 1679.15 1216.53 Q1677.92 1218.29 1676.34 1219.38 Q1674.79 1220.47 1673.1 1221.04 Q1671.43 1221.64 1669.85 1221.64 Q1667.64 1221.64 1666.15 1220.67 Q1664.66 1219.69 1664.66 1218 Q1664.66 1216.51 1665.64 1215.56 Q1666.64 1214.64 1667.84 1214.64 Q1668.94 1214.64 1669.51 1215.27 Q1670.08 1215.9 1670.08 1216.71 Q1670.08 1217.68 1669.37 1218.6 Q1668.68 1219.52 1667.44 1219.81 Q1668.56 1220.35 1669.74 1220.35 Q1672.15 1220.35 1674.1 1218.14 Q1676.08 1215.96 1676.94 1212.52 L1682.48 1190.6 Q1682.88 1188.85 1682.88 1187.61 Q1682.88 1186.47 1682.56 1185.83 Q1682.25 1185.2 1681.88 1185.06 Q1681.53 1184.92 1681.01 1184.92 Q1678.75 1184.92 1676.8 1187.01 Q1674.85 1189.08 1673.61 1192.09 Q1673.27 1192.92 1673.1 1193.09 Q1672.95 1193.27 1672.55 1193.27 Q1671.83 1193.24 1671.83 1192.66 Q1671.83 1192.49 1672.12 1191.8 Q1672.41 1191.11 1672.92 1190.11 Q1673.44 1189.08 1674.27 1187.96 Q1675.1 1186.84 1676.08 1185.86 Q1677.08 1184.89 1678.43 1184.26 Q1679.78 1183.62 1681.19 1183.62 Q1683.45 1183.62 1685 1185.12 Q1686.58 1186.58 1686.58 1189.02 Z" fill="#000000" fill-rule="nonzero" fill-opacity="1" /><path clip-path="url(#clip130)" d="M1689.45 1208.64 Q1688.62 1207.7 1688.62 1206.46 Q1688.62 1205.23 1689.42 1204.31 Q1690.25 1203.37 1691.74 1203.37 Q1693.49 1203.37 1694.5 1205.06 Q1695.5 1206.72 1695.5 1209.53 Q1695.5 1212.58 1694.27 1215.39 Q1693.03 1218.23 1691.83 1219.58 Q1690.62 1220.92 1690.14 1220.92 Q1689.56 1220.92 1689.56 1220.29 Q1689.56 1220.06 1689.96 1219.63 Q1694.18 1215.1 1694.21 1209.53 Q1694.21 1208.64 1694.1 1208.64 L1693.95 1208.76 Q1692.95 1209.59 1691.74 1209.59 Q1690.28 1209.59 1689.45 1208.64 Z" fill="#000000" fill-rule="nonzero" fill-opacity="1" /><path clip-path="url(#clip130)" d="M1714.04 1209.59 Q1714.04 1208.53 1714.13 1208.21 Q1714.25 1207.9 1714.7 1207.41 L1725.98 1194.84 Q1732.15 1187.9 1732.15 1181.85 Q1732.15 1177.91 1730.08 1175.1 Q1728.05 1172.29 1724.29 1172.29 Q1721.71 1172.29 1719.52 1173.87 Q1717.34 1175.45 1716.34 1178.26 Q1716.51 1178.2 1717.11 1178.2 Q1718.58 1178.2 1719.38 1179.12 Q1720.21 1180.04 1720.21 1181.27 Q1720.21 1182.85 1719.18 1183.62 Q1718.18 1184.37 1717.17 1184.37 Q1716.77 1184.37 1716.22 1184.28 Q1715.71 1184.2 1714.88 1183.4 Q1714.04 1182.56 1714.04 1181.1 Q1714.04 1177 1717.14 1173.73 Q1720.27 1170.45 1725.03 1170.45 Q1730.43 1170.45 1733.96 1173.67 Q1737.51 1176.85 1737.51 1181.85 Q1737.51 1183.6 1736.97 1185.2 Q1736.45 1186.78 1735.74 1188.01 Q1735.05 1189.25 1733.15 1191.23 Q1731.26 1193.21 1729.74 1194.61 Q1728.22 1196.02 1724.8 1199 L1718.58 1205.06 L1729.17 1205.06 Q1734.33 1205.06 1734.73 1204.6 Q1735.31 1203.77 1736.02 1199.38 L1737.51 1199.38 L1735.85 1209.59 L1714.04 1209.59 Z" fill="#000000" fill-rule="nonzero" fill-opacity="1" /><path clip-path="url(#clip130)" d="M1102.34 1213.6 Q1102.34 1220.48 1100.13 1228.23 Q1097.96 1235.94 1094.51 1242.17 Q1091.07 1248.36 1086.56 1252.46 Q1082.05 1256.51 1077.75 1256.51 Q1075 1256.51 1072.95 1255 Q1070.94 1253.44 1069.84 1250.86 Q1068.73 1248.23 1068.2 1245.36 Q1067.66 1242.45 1067.66 1239.3 Q1067.66 1234.58 1068.69 1229.46 Q1069.71 1224.3 1071.44 1219.62 Q1073.16 1214.91 1075.58 1210.65 Q1077.99 1206.34 1080.66 1203.23 Q1083.36 1200.07 1086.4 1198.23 Q1089.43 1196.38 1092.26 1196.38 Q1094.31 1196.38 1095.95 1197.28 Q1097.63 1198.15 1098.69 1199.66 Q1099.76 1201.14 1100.5 1202.9 Q1101.28 1204.66 1101.64 1206.71 Q1102.01 1208.72 1102.18 1210.4 Q1102.34 1212.04 1102.34 1213.6 M1096.81 1208.39 Q1096.81 1206.3 1096.64 1204.74 Q1096.48 1203.15 1096.03 1201.55 Q1095.58 1199.95 1094.59 1199.09 Q1093.65 1198.23 1092.18 1198.23 Q1087.87 1198.23 1083.04 1207.04 Q1081.48 1209.79 1080.08 1213.52 Q1078.69 1217.25 1078.2 1219.01 Q1077.71 1220.77 1076.56 1225.12 L1094.1 1225.12 Q1096.81 1213.93 1096.81 1208.39 M1093.36 1227.78 L1075.9 1227.78 Q1073.2 1238.03 1073.2 1244.42 Q1073.2 1250 1074.35 1252.33 Q1075.53 1254.63 1077.75 1254.63 Q1080.29 1254.63 1082.67 1252.09 Q1085.04 1249.5 1087.46 1244.83 Q1090.66 1238.77 1093.36 1227.78 Z" fill="#000000" fill-rule="nonzero" fill-opacity="1" /><path clip-path="url(#clip130)" d="M1135.07 1242.87 Q1135.07 1244.05 1134.07 1245.02 Q1133.06 1246 1131.89 1246 Q1130.91 1246 1130.31 1245.39 Q1129.73 1244.79 1129.73 1243.87 Q1129.73 1242.61 1130.74 1241.69 Q1131.74 1240.75 1132.83 1240.75 Q1133.84 1240.75 1134.44 1241.38 Q1135.07 1241.98 1135.07 1242.87 M1132.89 1259.02 Q1132.89 1260.03 1132.6 1261.2 L1127.21 1282.72 Q1126.69 1284.82 1125.46 1286.54 Q1124.22 1288.29 1122.65 1289.38 Q1121.1 1290.47 1119.4 1291.04 Q1117.74 1291.65 1116.16 1291.65 Q1113.95 1291.65 1112.46 1290.67 Q1110.97 1289.7 1110.97 1288 Q1110.97 1286.51 1111.94 1285.56 Q1112.95 1284.65 1114.15 1284.65 Q1115.24 1284.65 1115.82 1285.28 Q1116.39 1285.91 1116.39 1286.71 Q1116.39 1287.69 1115.67 1288.6 Q1114.99 1289.52 1113.75 1289.81 Q1114.87 1290.36 1116.05 1290.36 Q1118.46 1290.36 1120.41 1288.15 Q1122.39 1285.97 1123.25 1282.52 L1128.79 1260.6 Q1129.19 1258.85 1129.19 1257.62 Q1129.19 1256.47 1128.87 1255.84 Q1128.56 1255.21 1128.18 1255.06 Q1127.84 1254.92 1127.32 1254.92 Q1125.06 1254.92 1123.11 1257.01 Q1121.15 1259.08 1119.92 1262.09 Q1119.58 1262.93 1119.4 1263.1 Q1119.26 1263.27 1118.86 1263.27 Q1118.14 1263.24 1118.14 1262.67 Q1118.14 1262.49 1118.43 1261.81 Q1118.72 1261.12 1119.23 1260.11 Q1119.75 1259.08 1120.58 1257.96 Q1121.41 1256.84 1122.39 1255.87 Q1123.39 1254.89 1124.74 1254.26 Q1126.09 1253.63 1127.5 1253.63 Q1129.76 1253.63 1131.31 1255.12 Q1132.89 1256.58 1132.89 1259.02 Z" fill="#000000" fill-rule="nonzero" fill-opacity="1" /><path clip-path="url(#clip130)" d="M1135.76 1278.65 Q1134.92 1277.7 1134.92 1276.47 Q1134.92 1275.23 1135.73 1274.32 Q1136.56 1273.37 1138.05 1273.37 Q1139.8 1273.37 1140.81 1275.06 Q1141.81 1276.73 1141.81 1279.54 Q1141.81 1282.58 1140.58 1285.39 Q1139.34 1288.23 1138.14 1289.58 Q1136.93 1290.93 1136.44 1290.93 Q1135.87 1290.93 1135.87 1290.3 Q1135.87 1290.07 1136.27 1289.64 Q1140.49 1285.1 1140.52 1279.54 Q1140.52 1278.65 1140.4 1278.65 L1140.26 1278.76 Q1139.26 1279.6 1138.05 1279.6 Q1136.59 1279.6 1135.76 1278.65 Z" fill="#000000" fill-rule="nonzero" fill-opacity="1" /><path clip-path="url(#clip130)" d="M1167.34 1279.6 L1167.34 1277.79 Q1170.47 1277.79 1171.18 1277.41 Q1171.9 1277.01 1171.9 1275.12 L1171.9 1259.37 Q1171.9 1257.19 1171.13 1256.64 Q1170.38 1256.1 1167.34 1256.1 L1167.34 1254.26 L1175.6 1253.63 L1175.6 1259.8 Q1178.36 1253.63 1184.3 1253.63 Q1191.18 1253.63 1192.13 1259.37 Q1193.13 1257.13 1195.23 1255.38 Q1197.35 1253.63 1200.65 1253.63 Q1205.07 1253.63 1206.82 1255.81 Q1208.11 1257.27 1208.37 1258.91 Q1208.63 1260.54 1208.63 1264.79 L1208.63 1276.01 Q1208.69 1277.24 1209.63 1277.53 Q1210.58 1277.79 1213.22 1277.79 L1213.22 1279.6 Q1207.22 1279.42 1206.65 1279.42 Q1206.19 1279.42 1199.99 1279.6 L1199.99 1277.79 Q1203.12 1277.79 1203.84 1277.41 Q1204.58 1277.01 1204.58 1275.12 L1204.58 1261.43 Q1204.58 1258.45 1203.66 1256.7 Q1202.75 1254.92 1200.22 1254.92 Q1197.18 1254.92 1194.74 1257.47 Q1192.3 1260.03 1192.3 1264.33 L1192.3 1275.12 Q1192.3 1277.01 1193.02 1277.41 Q1193.77 1277.79 1196.89 1277.79 L1196.89 1279.6 Q1190.9 1279.42 1190.29 1279.42 Q1189.83 1279.42 1183.67 1279.6 L1183.67 1277.79 Q1186.79 1277.79 1187.51 1277.41 Q1188.26 1277.01 1188.26 1275.12 L1188.26 1261.43 Q1188.26 1258.45 1187.34 1256.7 Q1186.42 1254.92 1183.9 1254.92 Q1180.85 1254.92 1178.42 1257.47 Q1175.98 1260.03 1175.98 1264.33 L1175.98 1275.12 Q1175.98 1277.01 1176.69 1277.41 Q1177.44 1277.79 1180.54 1277.79 L1180.54 1279.6 Q1174.54 1279.42 1173.97 1279.42 Q1173.51 1279.42 1167.34 1279.6 Z" fill="#000000" fill-rule="nonzero" fill-opacity="1" /><path clip-path="url(#clip130)" d="M1216.5 1274 Q1216.5 1269.01 1222.38 1266.37 Q1225.91 1264.68 1233.2 1264.25 L1233.2 1262.09 Q1233.2 1258.45 1231.27 1256.53 Q1229.38 1254.58 1226.97 1254.58 Q1222.67 1254.58 1220.6 1257.27 Q1222.35 1257.33 1222.98 1258.22 Q1223.61 1259.08 1223.61 1259.97 Q1223.61 1261.15 1222.87 1261.92 Q1222.15 1262.67 1220.92 1262.67 Q1219.74 1262.67 1218.96 1261.95 Q1218.19 1261.2 1218.19 1259.91 Q1218.19 1257.04 1220.77 1255.15 Q1223.38 1253.26 1227.08 1253.26 Q1231.9 1253.26 1235.12 1256.5 Q1236.12 1257.5 1236.61 1258.79 Q1237.13 1260.08 1237.18 1260.95 Q1237.24 1261.78 1237.24 1263.44 L1237.24 1275.18 Q1237.24 1275.52 1237.36 1276.1 Q1237.47 1276.67 1237.99 1277.41 Q1238.53 1278.13 1239.42 1278.13 Q1241.55 1278.13 1241.52 1274.37 L1241.52 1271.07 L1243.01 1271.07 L1243.01 1274.37 Q1243.01 1277.5 1241.34 1278.73 Q1239.71 1279.94 1238.19 1279.94 Q1236.24 1279.94 1235 1278.51 Q1233.77 1277.07 1233.6 1275.12 Q1232.71 1277.36 1230.67 1278.82 Q1228.66 1280.26 1225.91 1280.26 Q1223.78 1280.26 1221.78 1279.71 Q1219.8 1279.19 1218.13 1277.73 Q1216.5 1276.24 1216.5 1274 M1221.03 1273.94 Q1221.03 1276.12 1222.58 1277.53 Q1224.13 1278.94 1226.31 1278.94 Q1228.78 1278.94 1230.99 1277.04 Q1233.2 1275.12 1233.2 1271.36 L1233.2 1265.48 Q1226.68 1265.71 1223.84 1268.32 Q1221.03 1270.9 1221.03 1273.94 Z" fill="#000000" fill-rule="nonzero" fill-opacity="1" /><path clip-path="url(#clip130)" d="M1244.18 1279.6 L1244.18 1277.79 Q1248.78 1277.79 1251.7 1274.26 Q1251.7 1274.26 1257.21 1267.26 L1251.39 1259.68 Q1249.32 1257.04 1248.4 1256.58 Q1247.51 1256.1 1244.47 1256.1 L1244.47 1254.26 Q1246.88 1254.43 1250.04 1254.43 Q1251.79 1254.43 1256.41 1254.26 L1256.41 1256.1 Q1254.34 1256.21 1254.34 1257.56 Q1254.34 1258.02 1254.86 1258.62 L1259.45 1264.56 L1263.09 1259.97 Q1263.98 1258.91 1263.98 1257.9 Q1263.98 1256.27 1262.26 1256.1 L1262.26 1254.26 Q1264.56 1254.43 1267.91 1254.43 Q1270.44 1254.43 1272.73 1254.26 L1272.73 1256.1 Q1268.26 1256.21 1265.73 1259.14 Q1264.61 1260.37 1260.34 1265.79 L1268.2 1275.95 Q1269.15 1277.19 1270.21 1277.5 Q1271.27 1277.79 1273.8 1277.79 L1273.8 1279.6 Q1271.16 1279.42 1268.14 1279.42 Q1267.08 1279.42 1261.8 1279.6 L1261.8 1277.79 Q1262.86 1277.73 1263.38 1277.27 Q1263.93 1276.78 1263.93 1276.3 Q1263.93 1276.07 1262.69 1274.37 L1258.22 1268.49 Q1253.74 1273.77 1253.17 1275 Q1252.94 1275.52 1252.94 1275.95 Q1252.94 1277.53 1254.63 1277.79 L1254.63 1279.6 Q1250.41 1279.42 1249.06 1279.42 Q1246.48 1279.42 1244.18 1279.6 Z" fill="#000000" fill-rule="nonzero" fill-opacity="1" /><path clip-path="url(#clip130)" d="M787.579 309.17 Q787.579 309.784 787.129 310.686 Q786.719 311.506 785.858 312.039 Q785.038 312.531 784.136 312.531 Q783.849 312.531 783.194 312.367 Q782.087 311.875 780.365 310.768 Q778.644 309.662 777.086 308.965 Q775.57 308.227 773.889 308.145 Q772.413 308.145 771.184 308.678 Q770.077 309.293 769.339 310.604 Q769.011 311.137 769.011 312.039 Q769.011 313.31 769.708 314.99 Q770.405 316.671 771.84 318.843 Q773.315 321.016 774.381 322.491 Q775.447 323.926 777.291 326.303 Q777.455 326.508 777.537 326.631 Q777.619 326.713 777.742 326.918 Q777.865 327.082 777.988 327.205 Q781.882 332.083 782.866 337.452 Q783.112 339.338 783.112 341.305 Q783.112 345.24 781.923 349.872 Q780.898 354.094 778.726 357.742 Q776.553 361.349 773.274 363.726 Q770.036 366.104 766.511 366.104 Q763.027 366.104 760.158 364.587 Q757.288 363.03 755.567 360.365 Q753.23 356.84 753.23 351.962 Q753.23 349.216 753.886 346.88 Q754.788 343.15 756.919 339.707 Q759.051 336.264 762.125 333.599 Q766.798 329.664 771.88 328.558 Q769.503 324.049 768.109 320.565 Q766.757 317.04 766.757 314.047 Q766.757 311.424 767.741 309.743 Q768.601 307.94 770.364 306.915 Q771.84 306.013 773.971 305.563 Q775.283 305.399 776.143 305.399 Q779.054 305.399 785.817 306.997 Q787.579 307.407 787.579 309.17 M777.332 344.666 Q777.332 342.166 776.922 340.485 Q776.143 336.387 773.028 330.73 L772.782 330.32 Q768.806 331.468 765.568 334.952 Q761.51 339.215 759.461 347.29 Q758.354 351.798 758.354 354.34 Q758.354 357.086 759.379 359.463 Q760.363 361.677 762.207 362.948 Q764.093 364.218 766.593 364.218 Q768.478 364.218 770.118 363.153 Q771.758 362.046 772.946 360.119 Q774.135 358.193 774.955 356.102 Q775.815 353.971 776.471 351.471 Q777.332 348.109 777.332 344.666 Z" fill="#000000" fill-rule="nonzero" fill-opacity="1" /><path clip-path="url(#clip130)" d="M820.308 352.459 Q820.308 353.635 819.303 354.611 Q818.299 355.586 817.123 355.586 Q816.147 355.586 815.545 354.984 Q814.971 354.381 814.971 353.463 Q814.971 352.201 815.975 351.283 Q816.979 350.336 818.07 350.336 Q819.074 350.336 819.676 350.967 Q820.308 351.569 820.308 352.459 M818.127 368.613 Q818.127 369.617 817.84 370.793 L812.446 392.313 Q811.929 394.407 810.696 396.129 Q809.462 397.879 807.884 398.969 Q806.334 400.06 804.642 400.634 Q802.977 401.236 801.399 401.236 Q799.19 401.236 797.698 400.261 Q796.206 399.285 796.206 397.592 Q796.206 396.1 797.182 395.153 Q798.186 394.235 799.391 394.235 Q800.481 394.235 801.055 394.866 Q801.629 395.498 801.629 396.301 Q801.629 397.277 800.912 398.195 Q800.223 399.113 798.989 399.4 Q800.108 399.945 801.285 399.945 Q803.695 399.945 805.646 397.736 Q807.626 395.555 808.486 392.112 L814.024 370.191 Q814.426 368.441 814.426 367.207 Q814.426 366.059 814.11 365.428 Q813.795 364.797 813.421 364.653 Q813.077 364.51 812.561 364.51 Q810.294 364.51 808.343 366.604 Q806.392 368.67 805.158 371.683 Q804.814 372.515 804.642 372.687 Q804.498 372.859 804.096 372.859 Q803.379 372.831 803.379 372.257 Q803.379 372.085 803.666 371.396 Q803.953 370.707 804.469 369.703 Q804.986 368.67 805.818 367.551 Q806.65 366.432 807.626 365.457 Q808.63 364.481 809.978 363.85 Q811.327 363.219 812.733 363.219 Q815 363.219 816.549 364.711 Q818.127 366.174 818.127 368.613 Z" fill="#000000" fill-rule="nonzero" fill-opacity="1" /></svg>
